<?xml version="1.0" encoding="UTF-8" standalone="no"?>
<!-- Created with Inkscape (http://www.inkscape.org/) -->

<svg
   xmlns:dc="http://purl.org/dc/elements/1.1/"
   xmlns:cc="http://creativecommons.org/ns#"
   xmlns:rdf="http://www.w3.org/1999/02/22-rdf-syntax-ns#"
   xmlns:svg="http://www.w3.org/2000/svg"
   xmlns="http://www.w3.org/2000/svg"
   xmlns:sodipodi="http://sodipodi.sourceforge.net/DTD/sodipodi-0.dtd"
   xmlns:inkscape="http://www.inkscape.org/namespaces/inkscape"
   sodipodi:docname="korsningar.svg"
   inkscape:version="0.48.4 r9939"
   version="1.1"
   id="svg2"
   height="1052.3622047"
   width="744.09448819"
   inkscape:export-filename="H:\tsea27\allt\dokument\tsea27_presentation\korsningar.png"
   inkscape:export-xdpi="200"
   inkscape:export-ydpi="200">
  <sodipodi:namedview
     id="base"
     pagecolor="#ffffff"
     bordercolor="#666666"
     borderopacity="1.0"
     inkscape:pageopacity="0.0"
     inkscape:pageshadow="2"
     inkscape:zoom="0.49497475"
     inkscape:cx="268.4709"
     inkscape:cy="671.97744"
     inkscape:document-units="px"
     inkscape:current-layer="layer1"
     showgrid="false"
     inkscape:window-width="984"
     inkscape:window-height="866"
     inkscape:window-x="732"
     inkscape:window-y="112"
     inkscape:window-maximized="0" />
  <defs
     id="defs4" />
  <metadata
     id="metadata7">
    <rdf:RDF>
      <cc:Work
         rdf:about="">
        <dc:format>image/svg+xml</dc:format>
        <dc:type
           rdf:resource="http://purl.org/dc/dcmitype/StillImage" />
        <dc:title></dc:title>
      </cc:Work>
    </rdf:RDF>
  </metadata>
  <g
     id="layer1"
     inkscape:groupmode="layer"
     inkscape:label="Layer 1">
    <path
       inkscape:connector-curvature="0"
       id="path2985"
       d="M212.074141884 249.868807955C212.074141884 249.868807955 211.233791666 58.2121340518 211.233791666 58.2121340518C211.233791666 58.2121340518 132.308800984 61.9742575929 132.308800984 61.9742575929C132.308800984 61.9742575929 131.920392863 128.607576813 131.920392863 128.607576813C131.920392863 128.607576813 55.2597710029 124.858543927 55.2597710029 124.858543927"
       style="fill:none;stroke:#000000;stroke-width:5.38532114;stroke-linecap:butt;stroke-linejoin:miter;stroke-miterlimit:4;stroke-opacity:1;stroke-dasharray:none" />
    <path
       inkscape:connector-curvature="0"
       id="path2987"
       d="m 53.344329,190.24785 77.958941,0 0,62.5723"
       style="fill:none;stroke:#000000;stroke-width:5.38532114;stroke-linecap:butt;stroke-linejoin:miter;stroke-miterlimit:4;stroke-opacity:1;stroke-dasharray:none" />
    <path
       inkscape:connector-curvature="0"
       id="path2995"
       d="m 167.72449,250.26317 6.15592,-97.97648 -72.33209,4.71041"
       style="fill:none;stroke:#000000;stroke-width:5.38532114;stroke-linecap:butt;stroke-linejoin:miter;stroke-miterlimit:4;stroke-opacity:1;stroke-dasharray:none" />
    <path
       inkscape:connector-curvature="0"
       id="path2997"
       d="m 104.6331,145.62661 -15.899517,14.36086 18.976847,7.18043 z"
       style="fill:#000000;stroke:#000000;stroke-width:5.38532114;stroke-linecap:butt;stroke-linejoin:miter;stroke-miterlimit:4;stroke-opacity:1;stroke-dasharray:none" />
    <path
       style="fill:none;stroke:#000000;stroke-width:5.38532114;stroke-linecap:butt;stroke-linejoin:miter;stroke-miterlimit:4;stroke-opacity:1;stroke-dasharray:none"
       d="M53.6855628372 456.004573219C53.6855628372 456.004573219 52.7285306769 269.083844433 52.7285306769 269.083844433C52.7285306769 269.083844433 133.198816278 267.81893023 133.198816278 267.81893023C133.198816278 267.81893023 133.222155255 333.292578038 133.222155255 333.292578038C133.222155255 333.292578038 207.598660792 332.746192982 207.598660792 332.746192982"
       id="path2999"
       inkscape:connector-curvature="0" />
    <path
       style="fill:none;stroke:#000000;stroke-width:5.38532114;stroke-linecap:butt;stroke-linejoin:miter;stroke-miterlimit:4;stroke-opacity:1;stroke-dasharray:none"
       d="m 210.28799,397.4545 -77.95894,0 0,62.5723"
       id="path3001"
       inkscape:connector-curvature="0" />
    <path
       style="fill:none;stroke:#000000;stroke-width:5.38532114;stroke-linecap:butt;stroke-linejoin:miter;stroke-miterlimit:4;stroke-opacity:1;stroke-dasharray:none"
       d="M 95.907834,457.46982 89.751909,359.49334 162.084,364.20375"
       id="path3003"
       inkscape:connector-curvature="0" />
    <path
       style="fill:#000000;stroke:#000000;stroke-width:5.38532114;stroke-linecap:butt;stroke-linejoin:miter;stroke-miterlimit:4;stroke-opacity:1;stroke-dasharray:none"
       d="m 158.99921,352.83327 15.89953,14.36085 -18.97685,7.18043 z"
       id="path3005"
       inkscape:connector-curvature="0" />
    <path
       style="fill:none;stroke:#000000;stroke-width:5.38532114;stroke-linecap:butt;stroke-linejoin:miter;stroke-miterlimit:4;stroke-opacity:1;stroke-dasharray:none"
       d="M258.314755029 56.544362271C258.314755029 56.544362271 448.997357088 56.6826483339 448.997357088 56.6826483339C448.997357088 56.6826483339 447.073640489 135.271633112 447.073640489 135.271633112C447.073640489 135.271633112 380.482146024 131.346590527 380.482146024 131.346590527C380.482146024 131.346590527 382.679187092 212.02139272 382.679187092 212.02139272"
       id="path3783"
       inkscape:connector-curvature="0" />
    <path
       style="fill:none;stroke:#000000;stroke-width:5.38532114;stroke-linecap:butt;stroke-linejoin:miter;stroke-miterlimit:4;stroke-opacity:1;stroke-dasharray:none"
       d="m 317.22509,212.30201 0,-77.95891 -62.5723,0"
       id="path3785"
       inkscape:connector-curvature="0" />
    <g
       transform="matrix(0,-0.35902142,-0.35902142,0,722.73414,126.68761)"
       id="g3801">
      <path
         inkscape:connector-curvature="0"
         id="path3787"
         d="m -172.7518,1049.4878 272.8987,-17.1464 -13.1201,201.4701"
         style="fill:none;stroke:#000000;stroke-width:15;stroke-linecap:butt;stroke-linejoin:miter;stroke-miterlimit:4;stroke-opacity:1;stroke-dasharray:none" />
      <path
         inkscape:connector-curvature="0"
         id="path3789"
         d="m 118.6976,1225.2193 -40,44.2857 -20,-52.8571 z"
         style="fill:#000000;stroke:#000000;stroke-width:15;stroke-linecap:butt;stroke-linejoin:miter;stroke-miterlimit:4;stroke-opacity:1;stroke-dasharray:none" />
    </g>
    <path
       inkscape:connector-curvature="0"
       id="path3814"
       d="M445.8922621 301.133357605C445.8922621 301.133357605 256.646252764 303.244620732 256.646252764 303.244620732C256.646252764 303.244620732 255.216800854 382.96091268 255.216800854 382.96091268C255.216800854 382.96091268 319.329188274 381.105273076 319.329188274 381.105273076C319.329188274 381.105273076 320.228307323 457.330633434 320.228307323 457.330633434"
       style="fill:none;stroke:#000000;stroke-width:5.38532114;stroke-linecap:butt;stroke-linejoin:miter;stroke-miterlimit:4;stroke-opacity:1;stroke-dasharray:none" />
    <path
       inkscape:connector-curvature="0"
       id="path3816"
       d="m 384.92628,460.0268 0,-77.95891 62.5723,0"
       style="fill:none;stroke:#000000;stroke-width:5.38532114;stroke-linecap:butt;stroke-linejoin:miter;stroke-miterlimit:4;stroke-opacity:1;stroke-dasharray:none" />
    <g
       id="g3818"
       transform="matrix(0,-0.35902142,0.35902142,0,-20.582774,374.4124)">
      <path
         style="fill:none;stroke:#000000;stroke-width:15;stroke-linecap:butt;stroke-linejoin:miter;stroke-miterlimit:4;stroke-opacity:1;stroke-dasharray:none"
         d="m -172.7518,1049.4878 272.8987,-17.1464 -13.1201,201.4701"
         id="path3820"
         inkscape:connector-curvature="0" />
      <path
         style="fill:#000000;stroke:#000000;stroke-width:15;stroke-linecap:butt;stroke-linejoin:miter;stroke-miterlimit:4;stroke-opacity:1;stroke-dasharray:none"
         d="m 118.6976,1225.2193 -40,44.2857 -20,-52.8571 z"
         id="path3822"
         inkscape:connector-curvature="0" />
    </g>
    <path
       inkscape:connector-curvature="0"
       id="path3826"
       d="M494.372327045 49.135534992C494.372327045 49.135534992 491.455136638 241.579510216 491.455136638 241.579510216M568.458308714 240.495113894C568.458308714 240.495113894 568.358137345 172.826818116 568.358137345 172.826818116C568.358137345 172.826818116 649.366017906 171.440330177 649.366017906 171.440330177C649.366017906 171.440330177 648.826660075 105.126524766 648.826660075 105.126524766C648.826660075 105.126524766 572.055466377 108.09530861 572.055466377 108.09530861C572.055466377 108.09530861 568.360542405 46.3524079324 568.360542405 46.3524079324"
       style="fill:none;stroke:#000000;stroke-width:5.38532114;stroke-linecap:butt;stroke-linejoin:miter;stroke-miterlimit:4;stroke-opacity:1;stroke-dasharray:none"
       sodipodi:nodetypes="ccccc" />
    <g
       id="g3830"
       transform="matrix(-0.35902142,0,0,-0.35902142,563.70551,515.03981)">
      <path
         style="fill:none;stroke:#000000;stroke-width:15;stroke-linecap:butt;stroke-linejoin:miter;stroke-miterlimit:4;stroke-opacity:1;stroke-dasharray:none"
         d="m 106.0503,782.80753 -5.9034,249.53387 -13.1201,201.4701"
         id="path3832"
         inkscape:connector-curvature="0"
         sodipodi:nodetypes="ccc" />
      <path
         style="fill:#000000;stroke:#000000;stroke-width:15;stroke-linecap:butt;stroke-linejoin:miter;stroke-miterlimit:4;stroke-opacity:1;stroke-dasharray:none"
         d="m 118.6976,1225.2193 -40,44.2857 -20,-52.8571 z"
         id="path3834"
         inkscape:connector-curvature="0" />
    </g>
    <path
       sodipodi:nodetypes="ccccc"
       style="fill:none;stroke:#000000;stroke-width:5.38532114;stroke-linecap:butt;stroke-linejoin:miter;stroke-miterlimit:4;stroke-opacity:1;stroke-dasharray:none"
       d="M649.960218657 268.126152573C649.960218657 268.126152573 647.213975953 461.710037606 647.213975953 461.710037606M568.531143019 459.1634261C568.531143019 459.1634261 568.337833453 393.454185065 568.337833453 393.454185065C568.337833453 393.454185065 492.556084192 395.343287604 492.556084192 395.343287604C492.556084192 395.343287604 492.785800814 325.319254119 492.785800814 325.319254119C492.785800814 325.319254119 569.83198411 329.215745234 569.83198411 329.215745234C569.83198411 329.215745234 570.754966227 264.396211043 570.754966227 264.396211043"
       id="path3852"
       inkscape:connector-curvature="0" />
    <g
       transform="matrix(0.35902142,0,0,-0.35902142,576.96488,735.26235)"
       id="g3854">
      <path
         sodipodi:nodetypes="ccc"
         inkscape:connector-curvature="0"
         id="path3856"
         d="m 106.0503,782.80753 -5.9034,249.53387 -13.1201,201.4701"
         style="fill:none;stroke:#000000;stroke-width:15;stroke-linecap:butt;stroke-linejoin:miter;stroke-miterlimit:4;stroke-opacity:1;stroke-dasharray:none" />
      <path
         inkscape:connector-curvature="0"
         id="path3858"
         d="m 118.6976,1225.2193 -40,44.2857 -20,-52.8571 z"
         style="fill:#000000;stroke:#000000;stroke-width:15;stroke-linecap:butt;stroke-linejoin:miter;stroke-miterlimit:4;stroke-opacity:1;stroke-dasharray:none" />
    </g>
  </g>
</svg>
