<?xml version="1.0" encoding="UTF-8" standalone="no"?>
<!-- Created with Inkscape (http://www.inkscape.org/) -->

<svg
   xmlns:dc="http://purl.org/dc/elements/1.1/"
   xmlns:cc="http://creativecommons.org/ns#"
   xmlns:rdf="http://www.w3.org/1999/02/22-rdf-syntax-ns#"
   xmlns:svg="http://www.w3.org/2000/svg"
   xmlns="http://www.w3.org/2000/svg"
   xmlns:xlink="http://www.w3.org/1999/xlink"
   xmlns:sodipodi="http://sodipodi.sourceforge.net/DTD/sodipodi-0.dtd"
   xmlns:inkscape="http://www.inkscape.org/namespaces/inkscape"
   width="744.09448"
   height="500"
   id="svg11893"
   version="1.1"
   inkscape:version="0.48.2 r9819"
   sodipodi:docname="pin.svg">
  <defs
     id="defs11895">
    <linearGradient
       id="linearGradient13647">
      <stop
         style="stop-color:#c1c1c1;stop-opacity:1;"
         offset="0"
         id="stop13649" />
      <stop
         style="stop-color:#736b75;stop-opacity:1;"
         offset="1"
         id="stop13651" />
    </linearGradient>
    <linearGradient
       id="linearGradient13533">
      <stop
         id="stop13535"
         offset="0"
         style="stop-color:#f2d9f4;stop-opacity:1;" />
      <stop
         id="stop13537"
         offset="1"
         style="stop-color:#742584;stop-opacity:1;" />
    </linearGradient>
    <linearGradient
       id="linearGradient13525">
      <stop
         id="stop13527"
         offset="0"
         style="stop-color:#f4f4d9;stop-opacity:1;" />
      <stop
         id="stop13529"
         offset="1"
         style="stop-color:#718425;stop-opacity:1;" />
    </linearGradient>
    <linearGradient
       id="linearGradient12567">
      <stop
         style="stop-color:#dcf4d9;stop-opacity:1;"
         offset="0"
         id="stop12569" />
      <stop
         style="stop-color:#2c8425;stop-opacity:1;"
         offset="1"
         id="stop12571" />
    </linearGradient>
    <linearGradient
       id="linearGradient12505">
      <stop
         id="stop12507"
         offset="0"
         style="stop-color:#f1d9f4;stop-opacity:1;" />
      <stop
         id="stop12509"
         offset="1"
         style="stop-color:#712584;stop-opacity:1;" />
    </linearGradient>
    <linearGradient
       id="linearGradient12457">
      <stop
         style="stop-color:#d9def4;stop-opacity:1;"
         offset="0"
         id="stop12459" />
      <stop
         style="stop-color:#253884;stop-opacity:1;"
         offset="1"
         id="stop12461" />
    </linearGradient>
    <linearGradient
       id="linearGradient12447">
      <stop
         style="stop-color:#808080;stop-opacity:1;"
         offset="0"
         id="stop12449" />
      <stop
         id="stop12455"
         offset="0.60913992"
         style="stop-color:#e4e4e4;stop-opacity:1;" />
      <stop
         style="stop-color:#808080;stop-opacity:1;"
         offset="1"
         id="stop12451" />
    </linearGradient>
    <linearGradient
       inkscape:collect="always"
       xlink:href="#linearGradient12447"
       id="linearGradient13082"
       gradientUnits="userSpaceOnUse"
       x1="356.60107"
       y1="113.97716"
       x2="375.48877"
       y2="96.804558" />
    <radialGradient
       inkscape:collect="always"
       xlink:href="#linearGradient12457"
       id="radialGradient13084"
       gradientUnits="userSpaceOnUse"
       cx="329.28571"
       cy="63.790752"
       fx="329.28571"
       fy="63.790752"
       r="17.142857" />
    <linearGradient
       inkscape:collect="always"
       xlink:href="#linearGradient12447"
       id="linearGradient13086"
       gradientUnits="userSpaceOnUse"
       gradientTransform="translate(-591.42857,41.428571)"
       x1="356.60107"
       y1="113.97716"
       x2="375.48877"
       y2="96.804558" />
    <radialGradient
       inkscape:collect="always"
       xlink:href="#linearGradient12505"
       id="radialGradient13088"
       gradientUnits="userSpaceOnUse"
       cx="329.28571"
       cy="63.790752"
       fx="329.28571"
       fy="63.790752"
       r="17.142857" />
    <radialGradient
       inkscape:collect="always"
       xlink:href="#linearGradient12567"
       id="radialGradient13092"
       gradientUnits="userSpaceOnUse"
       cx="329.28571"
       cy="63.790752"
       fx="329.28571"
       fy="63.790752"
       r="17.142857" />
    <radialGradient
       inkscape:collect="always"
       xlink:href="#linearGradient12567"
       id="radialGradient13096"
       gradientUnits="userSpaceOnUse"
       cx="329.28571"
       cy="63.790752"
       fx="329.28571"
       fy="63.790752"
       r="17.142857" />
    <radialGradient
       inkscape:collect="always"
       xlink:href="#linearGradient12567"
       id="radialGradient13100"
       gradientUnits="userSpaceOnUse"
       cx="329.28571"
       cy="63.790752"
       fx="329.28571"
       fy="63.790752"
       r="17.142857" />
    <filter
       inkscape:collect="always"
       id="filter13136"
       color-interpolation-filters="sRGB">
      <feGaussianBlur
         inkscape:collect="always"
         stdDeviation="42.835843"
         id="feGaussianBlur13138" />
    </filter>
    <linearGradient
       inkscape:collect="always"
       xlink:href="#linearGradient12447"
       id="linearGradient13306"
       gradientUnits="userSpaceOnUse"
       gradientTransform="matrix(0.88267784,0,0,0.88267784,171.17162,474.5932)"
       x1="356.60107"
       y1="113.97716"
       x2="375.48877"
       y2="96.804558" />
    <linearGradient
       inkscape:collect="always"
       xlink:href="#linearGradient12447"
       id="linearGradient13314"
       gradientUnits="userSpaceOnUse"
       gradientTransform="matrix(0.88267784,0,0,0.88267784,753.73899,550.2513)"
       x1="356.60107"
       y1="113.97716"
       x2="375.48877"
       y2="96.804558" />
    <linearGradient
       inkscape:collect="always"
       xlink:href="#linearGradient12447"
       id="linearGradient13361"
       gradientUnits="userSpaceOnUse"
       gradientTransform="matrix(0.88267784,0,0,0.88267784,1124.6609,-23.964384)"
       x1="356.60107"
       y1="113.97716"
       x2="375.48877"
       y2="96.804558" />
    <filter
       inkscape:collect="always"
       id="filter13387"
       color-interpolation-filters="sRGB">
      <feGaussianBlur
         inkscape:collect="always"
         stdDeviation="11.001392"
         id="feGaussianBlur13389" />
    </filter>
    <linearGradient
       inkscape:collect="always"
       xlink:href="#linearGradient12447"
       id="linearGradient13565"
       gradientUnits="userSpaceOnUse"
       gradientTransform="matrix(0.88267784,0,0,0.88267784,4526.8547,-23.964384)"
       x1="356.60107"
       y1="113.97716"
       x2="375.48877"
       y2="96.804558" />
    <radialGradient
       inkscape:collect="always"
       xlink:href="#linearGradient12567"
       id="radialGradient13567"
       gradientUnits="userSpaceOnUse"
       cx="329.28571"
       cy="63.790752"
       fx="329.28571"
       fy="63.790752"
       r="17.142857" />
    <linearGradient
       inkscape:collect="always"
       xlink:href="#linearGradient12447"
       id="linearGradient13569"
       gradientUnits="userSpaceOnUse"
       x1="356.60107"
       y1="113.97716"
       x2="375.48877"
       y2="96.804558" />
    <radialGradient
       inkscape:collect="always"
       xlink:href="#linearGradient12457"
       id="radialGradient13571"
       gradientUnits="userSpaceOnUse"
       cx="329.28571"
       cy="63.790752"
       fx="329.28571"
       fy="63.790752"
       r="17.142857" />
    <linearGradient
       inkscape:collect="always"
       xlink:href="#linearGradient12447"
       id="linearGradient13573"
       gradientUnits="userSpaceOnUse"
       gradientTransform="matrix(0.88267784,0,0,0.88267784,3573.3654,474.5932)"
       x1="356.60107"
       y1="113.97716"
       x2="375.48877"
       y2="96.804558" />
    <radialGradient
       inkscape:collect="always"
       xlink:href="#linearGradient13533"
       id="radialGradient13575"
       gradientUnits="userSpaceOnUse"
       cx="329.28571"
       cy="63.790752"
       fx="329.28571"
       fy="63.790752"
       r="17.142857" />
    <linearGradient
       inkscape:collect="always"
       xlink:href="#linearGradient12447"
       id="linearGradient13577"
       gradientUnits="userSpaceOnUse"
       gradientTransform="translate(-591.42857,41.428571)"
       x1="356.60107"
       y1="113.97716"
       x2="375.48877"
       y2="96.804558" />
    <radialGradient
       inkscape:collect="always"
       xlink:href="#linearGradient12505"
       id="radialGradient13579"
       gradientUnits="userSpaceOnUse"
       cx="329.28571"
       cy="63.790752"
       fx="329.28571"
       fy="63.790752"
       r="17.142857" />
    <linearGradient
       inkscape:collect="always"
       xlink:href="#linearGradient12447"
       id="linearGradient13581"
       gradientUnits="userSpaceOnUse"
       gradientTransform="matrix(0.88267784,0,0,0.88267784,4155.9327,550.2513)"
       x1="356.60107"
       y1="113.97716"
       x2="375.48877"
       y2="96.804558" />
    <radialGradient
       inkscape:collect="always"
       xlink:href="#linearGradient13525"
       id="radialGradient13583"
       gradientUnits="userSpaceOnUse"
       cx="329.28571"
       cy="63.790752"
       fx="329.28571"
       fy="63.790752"
       r="17.142857" />
    <linearGradient
       inkscape:collect="always"
       xlink:href="#linearGradient12447"
       id="linearGradient13645"
       gradientUnits="userSpaceOnUse"
       gradientTransform="matrix(0.88267784,0,0,0.88267784,3523.9208,-285.07957)"
       x1="356.60107"
       y1="113.97716"
       x2="375.48877"
       y2="96.804558" />
    <radialGradient
       inkscape:collect="always"
       xlink:href="#linearGradient13647"
       id="radialGradient13653"
       gradientUnits="userSpaceOnUse"
       cx="329.28571"
       cy="63.790752"
       fx="329.28571"
       fy="63.790752"
       r="17.142857" />
    <linearGradient
       inkscape:collect="always"
       xlink:href="#linearGradient12447"
       id="linearGradient13665"
       gradientUnits="userSpaceOnUse"
       gradientTransform="matrix(0.88267784,0,0,0.88267784,3523.9208,-285.07957)"
       x1="356.60107"
       y1="113.97716"
       x2="375.48877"
       y2="96.804558" />
    <radialGradient
       inkscape:collect="always"
       xlink:href="#linearGradient13647"
       id="radialGradient13667"
       gradientUnits="userSpaceOnUse"
       cx="329.28571"
       cy="63.790752"
       fx="329.28571"
       fy="63.790752"
       r="17.142857" />
  </defs>
  <sodipodi:namedview
     id="base"
     pagecolor="#ffffff"
     bordercolor="#666666"
     borderopacity="1.0"
     inkscape:pageopacity="0.0"
     inkscape:pageshadow="2"
     inkscape:zoom="0.7"
     inkscape:cx="364.81857"
     inkscape:cy="233.80816"
     inkscape:document-units="px"
     inkscape:current-layer="layer1"
     showgrid="false"
     inkscape:window-width="1366"
     inkscape:window-height="721"
     inkscape:window-x="-4"
     inkscape:window-y="24"
     inkscape:window-maximized="1"
     showguides="true"
     inkscape:guide-bbox="true" />
  <metadata
     id="metadata11898">
    <rdf:RDF>
      <cc:Work
         rdf:about="">
        <dc:format>image/svg+xml</dc:format>
        <dc:type
           rdf:resource="http://purl.org/dc/dcmitype/StillImage" />
        <dc:title></dc:title>
      </cc:Work>
    </rdf:RDF>
  </metadata>
  <g
     inkscape:label="Layer 1"
     inkscape:groupmode="layer"
     id="layer1"
     transform="translate(0,-552.36218)">
    <rect
       y="627.47296"
       x="43.12006"
       height="374.54819"
       width="655.11884"
       id="rect13140"
       style="fill:#ffce80;fill-opacity:1;fill-rule:nonzero;stroke:none" />
    <path
       style="font-size:medium;font-style:normal;font-variant:normal;font-weight:normal;font-stretch:normal;text-indent:0;text-align:start;text-decoration:none;line-height:normal;letter-spacing:normal;word-spacing:normal;text-transform:none;direction:ltr;block-progression:tb;writing-mode:lr-tb;text-anchor:start;baseline-shift:baseline;color:#000000;fill:#000000;fill-opacity:1;stroke:none;stroke-width:30;marker:none;visibility:visible;display:inline;overflow:visible;enable-background:accumulate;font-family:Sans;-inkscape-font-specification:Sans"
       d="m 41.945581,625.50152 c 0,129.24117 0.748074,267.61506 0.748074,378.65508 226.631895,0 457.787245,-5.77852 652.096605,-5.77852 0,-128.78963 1.33712,-261.26854 1.33712,-371.55546 -226.63194,0 -459.87252,-1.3211 -654.181799,-1.3211 z m 9.694078,14.39337 641.909161,-2.88922 -2.30014,356.25169 -636.345743,4.32143 z"
       id="path13142"
       inkscape:connector-curvature="0"
       sodipodi:nodetypes="cccccccccc" />
    <path
       sodipodi:nodetypes="cccccccccc"
       inkscape:connector-curvature="0"
       id="path13144"
       d="m 32.007602,609.61885 c 0,133.24126 -3.054439,283.42365 -3.054439,397.90035 230.848467,0 482.641007,2.8892 680.565547,2.8892 0,-132.77569 -5.37955,-286.69026 -5.37955,-400.39063 -230.84846,0 -474.20705,-0.39892 -672.131558,-0.39892 z m 14.689839,21.43135 642.187719,3.85231 -2.32502,360.41718 -640.426842,1.59568 z"
       style="font-size:medium;font-style:normal;font-variant:normal;font-weight:normal;font-stretch:normal;text-indent:0;text-align:start;text-decoration:none;line-height:normal;letter-spacing:normal;word-spacing:normal;text-transform:none;direction:ltr;block-progression:tb;writing-mode:lr-tb;text-anchor:start;baseline-shift:baseline;color:#000000;fill:#5d3800;fill-opacity:1;stroke:none;stroke-width:30;marker:none;visibility:visible;display:inline;overflow:visible;enable-background:accumulate;font-family:Sans;-inkscape-font-specification:Sans" />
    <g
       id="g13464"
       transform="matrix(0.23834883,0,0,0.23834883,-626.14155,820.65353)">
      <path
         sodipodi:nodetypes="ccccc"
         style="fill:#000000;fill-opacity:1;stroke:none"
         d="m 3663.6566,-114.31364 299.1581,-9.8714 32.5317,512.75595 -367.3554,-42.79868 z"
         id="path13158"
         inkscape:connector-curvature="0" />
      <path
         inkscape:connector-curvature="0"
         id="path13160"
         d="m 3656.5235,-123.23003 306.7239,-3.56656 24.9659,506.45111 -367.3554,-42.79869 z"
         style="fill:#fdc5ff;fill-opacity:1;stroke:none"
         sodipodi:nodetypes="ccccc" />
      <g
         id="g13162"
         transform="matrix(0.88267784,0,0,0.88267784,3973.1814,-269.26753)">
        <path
           style="font-size:medium;font-style:normal;font-variant:normal;font-weight:normal;font-stretch:normal;text-indent:0;text-align:start;text-decoration:none;line-height:normal;letter-spacing:normal;word-spacing:normal;text-transform:none;direction:ltr;block-progression:tb;writing-mode:lr-tb;text-anchor:start;baseline-shift:baseline;color:#000000;fill:url(#linearGradient13577);fill-opacity:1;fill-rule:nonzero;stroke:none;stroke-width:15;marker:none;visibility:visible;display:inline;overflow:visible;enable-background:accumulate;font-family:Sans;-inkscape-font-specification:Sans"
           d="m -256.56372,102.84497 -5.03284,5.54807 70.6875,77.78125 c 2.86549,0.27969 5.08578,-1.17469 3.04378,-5.04299 z"
           id="path13164"
           inkscape:connector-curvature="0"
           sodipodi:nodetypes="ccccc" />
        <path
           transform="translate(-591.42857,41.428571)"
           sodipodi:type="arc"
           style="fill:url(#radialGradient13579);fill-opacity:1;fill-rule:nonzero;stroke:none"
           id="path13166"
           sodipodi:cx="329.28571"
           sodipodi:cy="63.790752"
           sodipodi:rx="17.142857"
           sodipodi:ry="17.142857"
           d="m 346.42856,63.790752 c 0,9.467739 -7.67512,17.142857 -17.14285,17.142857 -9.46774,0 -17.14286,-7.675118 -17.14286,-17.142857 0,-9.467738 7.67512,-17.142856 17.14286,-17.142856 9.46773,0 17.14285,7.675118 17.14285,17.142856 z" />
      </g>
      <g
         id="g13176"
         transform="matrix(0.88267784,0,0,0.88267784,3973.1814,-269.26753)">
        <path
           inkscape:connector-curvature="0"
           id="path13178"
           d="M -318.57143,196.6479 -42.857143,199.50504 -30,255.21933 -341.42857,243.79075 z"
           style="fill:#fc9bff;fill-opacity:1;stroke:none" />
        <g
           id="g13180"
           style="font-size:12px;font-style:normal;font-weight:normal;line-height:125%;letter-spacing:0px;word-spacing:0px;fill:#000000;fill-opacity:1;stroke:none;font-family:Sans"
           transform="matrix(0.99899738,0.04476859,-0.04476859,0.99899738,0,0)">
          <path
             inkscape:connector-curvature="0"
             id="path13182"
             d="m -296.3949,245.25238 c 0,-9.54427 0,-19.08854 0,-28.63281 7.86974,-0.25967 -0.37995,15.44091 10.0398,11.75781 2.87736,0 5.75472,0 8.63208,0 0,-3.91927 0,-7.83854 0,-11.75781 7.66176,1.99892 2.28103,11.51306 3.78906,16.96735 0,3.88848 0,7.77697 0,11.66546 -8.10365,-0.94694 0.54987,-18.09342 -10.93307,-13.49609 -2.40765,0.32074 -6.08445,-0.62769 -7.7388,0.44633 0,4.34992 0,8.69984 0,13.04976 -1.26302,0 -2.52605,0 -3.78907,0 z"
             style="font-size:40px" />
          <path
             inkscape:connector-curvature="0"
             id="path13184"
             d="m -270.75037,245.25238 c 3.66537,-9.54427 7.33073,-19.08854 10.9961,-28.63281 7.82052,0.35935 6.96752,10.27652 10.33981,15.28983 1.82032,4.44766 3.64065,8.89532 5.46097,13.34298 -7.46385,-1.14365 -9.56242,-15.10888 -19.04571,-8.3347 -3.01086,2.47648 -1.77742,10.59617 -7.75117,8.3347 z m 8.26172,-11.75781 c 3.23568,0 6.47135,0 9.70703,0 -1.44063,-7.0719 -6.21208,-16.63937 -8.20203,-4.02042 -0.5143,1.33534 -1.02868,2.67092 -1.505,4.02042 z m 1.21094,-19.53125 c 5.65707,-9.96594 7.22339,11.23773 0.0815,0.51103 l -0.0703,-0.44075 -0.0112,-0.0703 z m 1.48438,0.0195 c 4.753,7.84593 3.0322,-7.42521 0,0 z"
             style="font-size:40px" />
          <path
             inkscape:connector-curvature="0"
             id="path13186"
             d="m -240.82849,245.25238 c 0,-9.54427 0,-19.08854 0,-28.63281 7.34734,0.56633 17.3808,-2.57363 22.19707,4.82964 4.23045,6.22883 -11.79078,12.7692 -0.96901,16.93027 5.37268,3.5248 -0.4873,10.53807 -2.48613,3.30641 -1.57102,-7.56869 -16.60482,-14.11266 -15.019,-1.93083 0.3531,2.43569 0.049,7.05185 -3.72293,5.49732 z m 3.78906,-15.99609 c 8.21219,6.31101 21.24739,-8.85498 7.41835,-10.11912 -5.8239,-1.56779 -9.24632,5.32659 -7.41835,10.11912 z"
             style="font-size:40px" />
          <path
             inkscape:connector-curvature="0"
             id="path13188"
             d="m -211.98083,245.25238 c 0,-9.54427 0,-19.08854 0,-28.63281 8.95212,-1.02955 22.58469,-0.46849 23.73131,11.16213 1.55941,8.23772 -4.20763,18.45286 -13.4752,17.50753 -3.41904,0.1254 -6.83839,-0.24985 -10.25611,-0.0369 z m 3.78906,-3.37891 c 9.05988,3.68576 20.3438,-6.47062 15.78139,-15.73529 -2.79002,-8.77355 -19.81811,-8.81544 -15.8389,2.70579 0.20247,4.34106 -0.0122,8.68662 0.0575,13.0295 z"
             style="font-size:40px" />
          <path
             inkscape:connector-curvature="0"
             id="path13190"
             d="m -174.89099,245.25238 c -3.69792,-9.54427 -7.39583,-19.08854 -11.09375,-28.63281 9.88663,2.9594 7.8783,15.3632 11.62341,22.82884 7.12579,-1.27477 4.55848,-14.07387 9.29109,-19.37544 7.85799,-5.76796 1.17273,6.44168 -0.053,10.14992 -2.20824,4.86729 -3.64347,10.85679 -6.32738,15.02949 -1.1468,0 -2.29359,0 -3.44039,0 z"
             style="font-size:40px" />
          <path
             inkscape:connector-curvature="0"
             id="path13192"
             d="m -159.50037,245.25238 c 3.66537,-9.54427 7.33073,-19.08854 10.9961,-28.63281 7.82052,0.35935 6.96752,10.27652 10.33981,15.28983 1.82032,4.44766 3.64065,8.89532 5.46097,13.34298 -7.46385,-1.14365 -9.56242,-15.10888 -19.04571,-8.3347 -3.05126,2.49183 -1.7143,10.57568 -7.75117,8.3347 z m 8.26172,-11.75781 c 3.23568,0 6.47135,0 9.70703,0 -1.44063,-7.07191 -6.21209,-16.63936 -8.20203,-4.02042 -0.5143,1.33534 -1.02869,2.67092 -1.505,4.02042 z"
             style="font-size:40px" />
          <path
             inkscape:connector-curvature="0"
             id="path13194"
             d="m -129.57849,245.25238 c 0,-9.54427 0,-19.08854 0,-28.63281 7.34734,0.56633 17.3808,-2.57363 22.19707,4.82964 4.23045,6.22883 -11.79078,12.7692 -0.96901,16.93027 5.37175,3.52385 -0.48552,10.53801 -2.48612,3.30755 -1.56914,-7.56256 -16.59734,-14.11806 -15.01589,-1.94009 0.35637,2.44019 0.0268,7.00271 -3.72605,5.50544 z m 3.78906,-15.99609 c 8.21219,6.31101 21.24739,-8.85498 7.41835,-10.11912 -5.8239,-1.56779 -9.24632,5.32659 -7.41835,10.11912 z"
             style="font-size:40px" />
          <path
             inkscape:connector-curvature="0"
             id="path13196"
             d="m -103.87537,245.25238 c 3.66537,-9.54427 7.330732,-19.08854 10.996098,-28.63281 7.82052,0.35935 6.967525,10.27652 10.339809,15.28983 1.820324,4.44766 3.640648,8.89532 5.460972,13.34298 -7.461458,-1.13598 -9.56367,-15.11974 -19.038572,-8.32376 -3.05758,2.46632 -1.75774,10.58434 -7.758307,8.32376 z m 8.261723,-11.75781 c 3.235677,0 6.471354,0 9.707031,0 -1.440628,-7.07191 -6.212084,-16.63936 -8.202039,-4.02042 -0.514298,1.33534 -1.02868,2.67092 -1.504992,4.02042 z"
             style="font-size:40px" />
        </g>
      </g>
    </g>
    <g
       id="g13482"
       transform="matrix(0.23834883,0,0,0.23834883,-530.802,783.87967)">
      <g
         transform="matrix(0.88267784,0,0,0.88267784,3973.1814,-249.65147)"
         id="g13148">
        <path
           sodipodi:nodetypes="ccccc"
           style="fill:#000000;fill-opacity:1;stroke:none"
           d="M 242.396,147.22489 592.9697,96.594713 591.90878,702.80879 201.9899,646.24025 z"
           id="path13150"
           inkscape:connector-curvature="0" />
        <path
           inkscape:connector-curvature="0"
           id="path13152"
           d="M 238.396,143.22489 593.9697,94.73757 587.90878,698.80879 197.9899,642.24025 z"
           style="fill:#96d5ff;fill-opacity:1;stroke:none" />
        <path
           sodipodi:nodetypes="ccccc"
           inkscape:connector-curvature="0"
           id="path13154"
           d="m 334.86485,61.416403 -5.03284,5.548063 70.6875,77.781254 c 2.86549,0.27969 5.08578,-1.17469 3.04378,-5.04299 z"
           style="font-size:medium;font-style:normal;font-variant:normal;font-weight:normal;font-stretch:normal;text-indent:0;text-align:start;text-decoration:none;line-height:normal;letter-spacing:normal;word-spacing:normal;text-transform:none;direction:ltr;block-progression:tb;writing-mode:lr-tb;text-anchor:start;baseline-shift:baseline;color:#000000;fill:url(#linearGradient13569);fill-opacity:1;fill-rule:nonzero;stroke:none;stroke-width:15;marker:none;visibility:visible;display:inline;overflow:visible;enable-background:accumulate;font-family:Sans;-inkscape-font-specification:Sans" />
        <path
           d="m 346.42856,63.790752 c 0,9.467739 -7.67512,17.142857 -17.14285,17.142857 -9.46774,0 -17.14286,-7.675118 -17.14286,-17.142857 0,-9.467738 7.67512,-17.142856 17.14286,-17.142856 9.46773,0 17.14285,7.675118 17.14285,17.142856 z"
           sodipodi:ry="17.142857"
           sodipodi:rx="17.142857"
           sodipodi:cy="63.790752"
           sodipodi:cx="329.28571"
           id="path13156"
           style="fill:url(#radialGradient13571);fill-opacity:1;fill-rule:nonzero;stroke:none"
           sodipodi:type="arc" />
      </g>
      <path
         style="fill:#5abdff;fill-opacity:1;stroke:none"
         d="m 4214.0264,-59.682137 2.5219,-50.438733 253.4546,-20.1755 8.8268,68.09229 z"
         id="path13198"
         inkscape:connector-curvature="0" />
      <g
         transform="matrix(0.88228598,-0.02629842,0.02629842,0.88228598,3973.1814,-249.65147)"
         style="font-size:12px;font-style:normal;font-weight:normal;line-height:125%;letter-spacing:0px;word-spacing:0px;fill:#000000;fill-opacity:1;stroke:none;font-family:Sans"
         id="g13200">
        <path
           style="font-size:40px"
           d="m 311.88467,183.34656 c 7.83865,7.39012 5.55424,24.34845 -4.0284,28.95497 -12.98202,2.80163 -17.31774,-11.94561 -15.10706,-21.90544 -0.99096,-6.60188 6.09472,-6.19288 4.02687,0.28174 -3.20752,8.24572 4.6762,25.40995 13.58905,14.71737 3.68445,-6.80697 0.83488,-14.7674 1.51954,-22.04864 z"
           id="path13202"
           inkscape:connector-curvature="0" />
        <path
           style="font-size:40px"
           d="m 322.00186,211.97937 c 0,-9.54427 0,-19.08854 0,-28.63281 8.52068,-3.46851 28.75698,3.07171 19.05883,13.79673 -7.02349,3.1537 -18.86407,4.87437 -16.46238,14.68382 -0.78382,0.43267 -1.7685,0.51442 -2.59645,0.15226 z m 3.78906,-15.01953 c 9.44045,8.22395 18.90963,-13.48516 4.92698,-10.76128 -5.41159,-0.0875 -6.48835,6.8366 -4.92698,10.76128 z"
           id="path13204"
           inkscape:connector-curvature="0" />
        <path
           style="font-size:40px"
           d="m 348.72061,211.97937 c 0,-9.54427 0,-19.08854 0,-28.63281 8.52068,-3.46851 28.75698,3.07171 19.05883,13.79673 -7.02349,3.1537 -18.86407,4.87437 -16.46238,14.68382 -0.78382,0.43267 -1.7685,0.51442 -2.59645,0.15226 z m 3.78906,-15.01953 c 9.44045,8.22395 18.90963,-13.48516 4.92698,-10.76128 -5.41159,-0.0875 -6.48835,6.8366 -4.92698,10.76128 z"
           id="path13206"
           inkscape:connector-curvature="0" />
        <path
           style="font-size:40px"
           d="m 375.43936,211.97937 c 0,-9.54427 0,-19.08854 0,-28.63281 10.69068,-3.28698 26.79464,3.40513 24.106,16.58729 -2.07538,11.07915 -14.43548,14.45768 -24.106,12.04552 z m 3.78906,-3.37891 c 10.41348,4.87542 22.27142,-10.26177 14.03383,-18.84964 -8.13512,-9.66807 -19.56786,4.18448 -14.04784,12.89398 -0.0248,1.98509 -0.0381,3.97089 0.014,5.95566 z"
           id="path13208"
           inkscape:connector-curvature="0" />
        <path
           style="font-size:40px"
           d="m 404.40421,211.97937 c 0,-9.54427 0,-19.08854 0,-28.63281 7.57764,-1.36236 26.9663,-0.80323 20.80815,10.94104 -5.59629,5.39455 -0.93939,10.82023 2.8064,14.98581 -6.70802,5.99863 -6.37091,-12.04289 -15.21027,-9.26972 -10.46436,-0.98252 0.31827,13.63032 -8.40428,11.97568 z m 3.78906,-15.99609 c 9.06078,7.61944 20.63209,-11.59244 5.6637,-10.28955 -4.82613,0.18893 -7.81383,6.162 -5.6637,10.28955 z"
           id="path13210"
           inkscape:connector-curvature="0" />
        <path
           style="font-size:40px"
           d="m 430.10733,211.97937 c 3.66536,-9.54427 7.33073,-19.08854 10.99609,-28.63281 8.99377,1.46092 7.53665,12.80322 11.77579,18.7984 1.34167,3.27813 2.68333,6.55627 4.025,9.83441 -6.2481,-4.20232 -17.40024,-17.11252 -21.45196,-3.56465 -0.70533,2.20283 -2.67048,4.9681 -5.34492,3.56465 z m 8.26172,-11.75781 c 3.23568,0 6.47135,0 9.70703,0 -0.25728,-5.28234 -6.98516,-16.52898 -7.85464,-4.92373 -0.6282,1.63714 -1.26915,3.26976 -1.85239,4.92373 z"
           id="path13212"
           inkscape:connector-curvature="0" />
        <path
           style="font-size:40px"
           d="m 473.36905,200.7489 c 5.82218,-12.71572 20.90146,7.45879 7.33727,10.40544 -9.33041,5.12946 -23.64924,-2.87116 -21.82551,-14.04925 -0.43516,-10.37079 13.79363,-19.39103 22.13406,-12.51571 3.78116,3.61476 1.22367,8.61835 -2.50092,3.21863 -11.57618,-7.10691 -22.97746,12.20757 -12.34841,19.84945 5.17012,5.17093 21.3659,-3.26757 10.55401,-6.92594 -1.11544,0.0524 -2.23513,0.11265 -3.3505,0.0174 z"
           id="path13214"
           inkscape:connector-curvature="0" />
        <path
           style="font-size:40px"
           d="m 491.14249,211.97937 c 0,-9.54427 0,-19.08854 0,-28.63281 6.90104,0 13.80208,0 20.70312,0 -3.67082,6.29003 -22.36411,0.73124 -15.54928,12.00472 2.96374,-0.58985 17.69162,0.30802 10.0549,2.23102 -8.14607,-3.56131 -17.76718,11.55389 -5.51179,10.92787 3.78969,-1.37277 15.72134,1.22515 6.19197,3.68315 -5.29853,0.0961 -10.59191,-0.56165 -15.88892,-0.21395 z"
           id="path13216"
           inkscape:connector-curvature="0" />
        <path
           style="font-size:40px"
           d="m 525.06827,211.97937 c 0,-8.41797 0,-16.83594 0,-25.25391 -3.14453,0 -6.28907,0 -9.4336,0 3.95953,-6.47047 18.93266,-4.2917 20.15735,-1.05152 -10.72663,1.57265 -7.1795,13.15236 -6.60866,20.64098 0.43867,2.97608 -0.37756,6.42806 -4.11509,5.66445 z"
           id="path13218"
           inkscape:connector-curvature="0" />
      </g>
    </g>
    <g
       id="g13500"
       transform="matrix(0.23834883,0,0,0.23834883,-545.78394,707.60806)">
      <path
         inkscape:connector-curvature="0"
         id="path13168"
         d="m 4740.5236,89.963234 299.1581,-9.871402 38.8366,458.534318 -373.6603,11.42295 z"
         style="fill:#000000;fill-opacity:1;stroke:none"
         sodipodi:nodetypes="ccccc" />
      <path
         sodipodi:nodetypes="ccccc"
         style="fill:#c3ffc3;fill-opacity:1;stroke:none"
         d="m 4733.3905,81.046837 306.7239,-3.566557 31.2708,453.49044 -373.6603,10.16198 z"
         id="path13170"
         inkscape:connector-curvature="0" />
      <path
         style="font-size:medium;font-style:normal;font-variant:normal;font-weight:normal;font-stretch:normal;text-indent:0;text-align:start;text-decoration:none;line-height:normal;letter-spacing:normal;word-spacing:normal;text-transform:none;direction:ltr;block-progression:tb;writing-mode:lr-tb;text-anchor:start;baseline-shift:baseline;color:#000000;fill:url(#linearGradient13565);fill-opacity:1;fill-rule:nonzero;stroke:none;stroke-width:15;marker:none;visibility:visible;display:inline;overflow:visible;enable-background:accumulate;font-family:Sans;-inkscape-font-specification:Sans"
         d="m 4822.4325,30.246512 -4.4424,4.897158 62.3943,68.65579 c 2.5293,0.24687 4.4891,-1.03688 2.6867,-4.45134 z"
         id="path13172"
         inkscape:connector-curvature="0"
         sodipodi:nodetypes="ccccc" />
      <path
         transform="matrix(0.88267784,0,0,0.88267784,4525.6702,-28.791908)"
         sodipodi:type="arc"
         style="fill:url(#radialGradient13567);fill-opacity:1;fill-rule:nonzero;stroke:none"
         id="path13174"
         sodipodi:cx="329.28571"
         sodipodi:cy="63.790752"
         sodipodi:rx="17.142857"
         sodipodi:ry="17.142857"
         d="m 346.42856,63.790752 c 0,9.467739 -7.67512,17.142857 -17.14285,17.142857 -9.46774,0 -17.14286,-7.675118 -17.14286,-17.142857 0,-9.467738 7.67512,-17.142856 17.14286,-17.142856 9.46773,0 17.14285,7.675118 17.14285,17.142856 z" />
      <path
         style="fill:#99ff99;fill-opacity:1;stroke:none"
         d="m 4750.6723,102.05642 254.5241,8.44495 10.9866,84.44939 -250.8619,-16.88988 z"
         id="path13220"
         inkscape:connector-curvature="0" />
      <g
         transform="matrix(0.88202165,0.03402907,-0.03402907,0.88202165,3973.1814,-238.30275)"
         style="font-size:40px;font-style:normal;font-weight:normal;line-height:125%;letter-spacing:0px;word-spacing:0px;fill:#000000;fill-opacity:1;stroke:none;font-family:Sans"
         id="g13222">
        <path
           d="m 944.97681,384.93112 c 0,-8.41797 0,-16.83593 0,-25.2539 -3.14453,0 -6.28907,0 -9.4336,0 3.95856,-6.47176 18.92995,-4.29054 20.15477,-1.05054 -10.72414,1.57101 -7.17707,13.14777 -6.60629,20.63391 0.44033,2.97872 -0.37568,6.43191 -4.11488,5.67053 z"
           id="path13224"
           inkscape:connector-curvature="0" />
        <path
           d="m 962.2229,384.93112 c 0,-9.54427 0,-19.08854 0,-28.63281 6.90104,0 13.80209,0 20.70313,0 -3.67105,6.29182 -22.36413,0.72812 -15.55244,12.00448 2.76695,-0.0634 17.06403,-0.95273 10.95142,3.11133 -9.48878,-6.30897 -19.18649,12.88967 -4.7858,9.8636 4.65801,-1.65219 13.06058,3.29014 3.94355,3.70164 -5.08662,-0.012 -10.17325,-0.12278 -15.25986,-0.0482 z"
           id="path13226"
           inkscape:connector-curvature="0" />
        <path
           d="m 988.70728,384.93112 c 0,-9.54427 0,-19.08854 0,-28.63281 6.90486,-0.54136 1.73593,17.31039 9.21963,9.09749 0.60233,-3.85406 13.31869,-12.07683 10.04599,-5.70809 -9.91418,4.90766 -6.0892,15.74387 1.2233,20.73821 6.8567,7.67479 -5.016,4.12929 -5.77,-1.17494 -2.7243,-9.15656 -14.16715,-6.34672 -10.82967,3.10998 0.2515,2.14884 -1.96506,3.59044 -3.88925,2.57016 z"
           id="path13228"
           inkscape:connector-curvature="0" />
        <path
           d="m 1015.5432,384.93112 c 0,-9.54427 0,-19.08854 0,-28.63281 10.3812,0.88604 9.5956,14.85555 17.5709,18.78495 4.634,-2.43175 -2.3762,-16.77207 3.5821,-17.40963 4.2323,5.86593 -0.2206,13.34516 1.4054,19.90637 0.1798,4.05819 0.9088,10.76145 -5.0251,5.437 -5.7735,-3.6323 -7.209,-18.47436 -14.0959,-15.82048 -1.4025,5.33132 4.1872,16.34998 -3.4374,17.7346 l 0,0 z"
           id="path13230"
           inkscape:connector-curvature="0" />
        <path
           d="m 1045.1331,384.93112 c 0,-9.54427 0,-19.08854 0,-28.63281 8.0891,3.72762 1.8844,13.71263 3.789,20.29605 -0.5815,2.52596 1.2111,7.42595 -0.9856,8.33676 -0.9345,0 -1.8689,0 -2.8034,0 z"
           id="path13232"
           inkscape:connector-curvature="0" />
        <path
           d="m 1054.2932,375.7319 c 3.7783,6.25529 21.9591,8.85814 16.5799,-1.01454 -9.3539,-0.98423 -22.0349,-14.17992 -8.7671,-19.52408 4.4208,-0.97989 13.9422,1.69817 11.3146,7.62609 -3.9155,-10.72775 -21.1331,3.88344 -6.0175,4.09866 10.4583,1.80524 11.5276,20.15614 -0.8561,18.61784 -5.6312,0.35109 -12.5509,-3.46065 -12.2538,-9.80397 z"
           id="path13234"
           inkscape:connector-curvature="0" />
        <path
           d="m 1082.1448,384.93112 c 0,-9.54427 0,-19.08854 0,-28.63281 7.4288,-0.68075 1.0819,18.79503 9.8963,8.27327 1.0311,-3.55794 11.8928,-10.66549 9.1605,-5.35719 -10.5594,6.43082 -3.7292,18.21828 3.1484,23.7119 -5.9231,6.31072 -7.4525,-14.02261 -16.5214,-8.66681 -5.5532,2.04169 1.9045,12.4433 -5.6838,10.67164 z"
           id="path13236"
           inkscape:connector-curvature="0" />
        <path
           d="m 1105.8752,384.93112 c 5.1922,-9.27083 5.0408,-21.40465 13.4008,-28.84713 5.7671,6.86203 11.8585,22.47207 10.5556,27.11946 -4.495,-7.08385 -17.3566,-12.02187 -19.5243,-0.47732 -0.741,1.5908 -2.646,3.00483 -4.4321,2.20499 z m 8.2618,-11.75781 c 3.2357,0 6.4713,0 9.707,0 -0.1812,-5.29109 -6.9629,-16.45869 -7.8546,-4.92373 -0.6283,1.63713 -1.2692,3.26974 -1.8524,4.92373 z"
           id="path13238"
           inkscape:connector-curvature="0" />
        <path
           d="m 937.5354,434.93112 c 0,-9.54427 0,-19.08854 0,-28.63281 9.17941,5.08857 0.28884,17.49196 4.48461,24.70636 3.45007,1.10226 18.5336,-0.85602 9.20355,4.20513 -4.56913,0.85585 -9.13019,-1.32568 -13.68816,-0.27868 z"
           id="path13240"
           inkscape:connector-curvature="0" />
        <path
           d="m 958.80493,420.98581 c -2.53826,-12.76342 17.62893,-21.26093 24.6371,-9.94736 7.21274,8.95093 0.2154,26.02982 -12.09216,24.45386 -7.12711,-0.4836 -13.03542,-7.41026 -12.54494,-14.5065 z m 3.90625,0.0586 c -2.52895,12.1395 19.20861,14.69696 20.19318,2.34297 2.70806,-9.25828 -11.13894,-19.284 -17.86205,-10.94607 -1.77487,2.42621 -2.60325,5.61352 -2.33113,8.6031 z m 4.25781,-16.54297 c -2.59357,-13.05963 9.85308,3.34112 0,0 z m 7.28516,0 c -2.59357,-13.05963 9.85308,3.34112 0,0 z"
           id="path13242"
           inkscape:connector-curvature="0" />
        <path
           d="m 989.76196,425.7319 c 3.77827,6.2553 21.95904,8.85813 16.57984,-1.01453 -9.35389,-0.98426 -22.03475,-14.17996 -8.76702,-19.5241 4.42082,-0.97991 13.94232,1.69821 11.31452,7.62612 -3.9156,-10.72771 -21.13298,3.88341 -6.0174,4.09864 10.4583,1.80527 11.5275,20.15618 -0.8562,18.61784 -5.63501,0.34332 -12.54939,-3.45216 -12.25374,-9.80397 z"
           id="path13244"
           inkscape:connector-curvature="0" />
        <path
           d="m 1017.7307,434.93112 c 0,-9.54427 0,-19.08854 0,-28.63281 10.3812,0.88604 9.5956,14.85555 17.5709,18.78495 4.634,-2.43175 -2.3762,-16.77207 3.5821,-17.40963 4.2323,5.86593 -0.2206,13.34516 1.4054,19.90637 0.1798,4.05819 0.9088,10.76145 -5.0251,5.437 -5.7735,-3.6323 -7.209,-18.47436 -14.0959,-15.82048 -1.4025,5.33132 4.1872,16.34998 -3.4374,17.7346 l 0,0 z"
           id="path13246"
           inkscape:connector-curvature="0" />
        <path
           d="m 1047.3206,434.93112 c 0,-9.54427 0,-19.08854 0,-28.63281 8.0891,3.72762 1.8844,13.71263 3.789,20.29605 -0.5815,2.52596 1.2111,7.42595 -0.9856,8.33676 -0.9345,0 -1.8689,0 -2.8034,0 z"
           id="path13248"
           inkscape:connector-curvature="0" />
        <path
           d="m 1057.7307,434.93112 c 0,-9.54427 0,-19.08854 0,-28.63281 10.3812,0.88604 9.5956,14.85555 17.5709,18.78495 4.634,-2.43175 -2.3762,-16.77207 3.5821,-17.40963 4.2323,5.86593 -0.2206,13.34516 1.4054,19.90637 0.1798,4.05819 0.9088,10.76145 -5.0251,5.437 -5.7735,-3.6323 -7.209,-18.47436 -14.0959,-15.82048 -1.4025,5.33132 4.1872,16.34998 -3.4374,17.7346 l 0,0 z"
           id="path13250"
           inkscape:connector-curvature="0" />
        <path
           d="m 1100.0745,423.70065 c 5.8236,-12.71699 20.9026,7.4612 7.3365,10.40646 -9.3308,5.12773 -23.6483,-2.87271 -21.8248,-14.05052 -0.4356,-10.37113 13.7961,-19.3923 22.1352,-12.51429 3.7811,3.6177 1.2184,8.61817 -2.5042,3.21744 -10.9409,-6.61882 -21.9592,10.12151 -13.6624,18.79219 7.3039,9.12241 24.4285,-6.5493 8.5197,-5.85128 l 0,0 z"
           id="path13252"
           inkscape:connector-curvature="0" />
        <path
           d="m 1114.6252,434.93112 c 5.1922,-9.27083 5.0408,-21.40465 13.4008,-28.84713 5.7671,6.86203 11.8585,22.47207 10.5556,27.11946 -4.495,-7.08385 -17.3566,-12.02187 -19.5243,-0.47732 -0.741,1.5908 -2.646,3.00483 -4.4321,2.20499 z m 8.2618,-11.75781 c 3.2357,0 6.4713,0 9.707,0 -0.1812,-5.29109 -6.9629,-16.45869 -7.8546,-4.92373 -0.6283,1.63713 -1.2692,3.26974 -1.8524,4.92373 z"
           id="path13254"
           inkscape:connector-curvature="0" />
        <path
           d="m 1144.5471,434.93112 c 0,-9.54427 0,-19.08854 0,-28.63281 7.5167,-0.52501 24.1102,-2.03966 21.9402,9.57616 -4.7073,4.76957 -5.6276,11.52038 1.2271,14.76157 0.4214,7.67162 -6.2329,0.38321 -6.3621,-3.32761 -4.9047,-7.51002 -17.046,-4.43534 -12.8306,5.15169 -0.143,1.9313 -2.1201,3.68829 -3.9746,2.471 z m 3.7891,-15.99609 c 9.0738,7.62892 20.629,-11.62276 5.647,-10.2807 -4.8456,0.18324 -7.7647,6.15157 -5.647,10.2807 z"
           id="path13256"
           inkscape:connector-curvature="0" />
      </g>
    </g>
    <g
       id="g13541"
       transform="matrix(0.23834883,0,0,0.23834883,-680.62127,677.64421)">
      <path
         sodipodi:nodetypes="ccccc"
         style="fill:#000000;fill-opacity:1;stroke:none"
         d="m 4369.6016,664.1789 301.0496,-18.69812 36.9451,467.36102 -373.6602,11.4229 z"
         id="path13258"
         inkscape:connector-curvature="0" />
      <path
         inkscape:connector-curvature="0"
         id="path13260"
         d="m 4332.1528,655.26253 337.0396,-14.2662 31.2708,464.19007 -373.6602,10.162 z"
         style="fill:#fffca5;fill-opacity:1;stroke:none"
         sodipodi:nodetypes="ccccc" />
      <path
         sodipodi:nodetypes="ccccc"
         inkscape:connector-curvature="0"
         id="path13262"
         d="m 4451.5105,604.4622 -4.4424,4.89716 62.3943,68.65578 c 2.5293,0.24688 4.4891,-1.03689 2.6867,-4.45135 z"
         style="font-size:medium;font-style:normal;font-variant:normal;font-weight:normal;font-stretch:normal;text-indent:0;text-align:start;text-decoration:none;line-height:normal;letter-spacing:normal;word-spacing:normal;text-transform:none;direction:ltr;block-progression:tb;writing-mode:lr-tb;text-anchor:start;baseline-shift:baseline;color:#000000;fill:url(#linearGradient13581);fill-opacity:1;fill-rule:nonzero;stroke:none;stroke-width:15;marker:none;visibility:visible;display:inline;overflow:visible;enable-background:accumulate;font-family:Sans;-inkscape-font-specification:Sans" />
      <path
         d="m 346.42856,63.790752 c 0,9.467739 -7.67512,17.142857 -17.14285,17.142857 -9.46774,0 -17.14286,-7.675118 -17.14286,-17.142857 0,-9.467738 7.67512,-17.142856 17.14286,-17.142856 9.46773,0 17.14285,7.675118 17.14285,17.142856 z"
         sodipodi:ry="17.142857"
         sodipodi:rx="17.142857"
         sodipodi:cy="63.790752"
         sodipodi:cx="329.28571"
         id="path13264"
         style="fill:url(#radialGradient13583);fill-opacity:1;fill-rule:nonzero;stroke:none"
         sodipodi:type="arc"
         transform="matrix(0.88267784,0,0,0.88267784,4152.1498,542.37025)" />
      <path
         inkscape:connector-curvature="0"
         id="path13266"
         d="m 4360.8358,676.27211 278.4826,0.87915 5.9427,92.01519 -286.169,-5.54119 z"
         style="fill:#fffa64;fill-opacity:1;stroke:none"
         sodipodi:nodetypes="ccccc" />
      <path
         style="font-size:40px;font-style:normal;font-weight:normal;line-height:125%;letter-spacing:0px;word-spacing:0px;fill:#000000;fill-opacity:1;stroke:none;font-family:Sans"
         d="m 4419.5125,712.03054 c 3.2353,-8.42454 6.4707,-16.849 9.706,-25.27354 7.9732,1.69333 6.6574,11.575 10.6935,16.82446 2.8324,2.01038 2.1881,11.03762 -0.9465,5.00619 -3.2505,-5.29077 -14.0648,-7.15675 -14.7661,0.93379 -0.5993,1.87225 -2.7329,3.36609 -4.6869,2.5091 z m 7.2924,-10.37835 c 2.8561,0 5.7121,0 8.5682,0 -0.454,-3.59762 -4.6463,-13.35077 -6.6802,-5.0092 -0.6328,1.66835 -1.2933,3.32655 -1.888,5.0092 z m 19.119,10.37835 c 0,-8.42454 0,-16.849 0,-25.27354 6.441,0.42695 14.5585,-2.01233 19.3073,3.70954 4.8093,4.9302 -8.1563,9.96941 -1.7365,14.25278 5.467,0.61955 0.9082,10.84422 -1.2922,4.11628 -0.4784,-6.55892 -13.8315,-11.71481 -12.9755,-2.17633 0.4958,2.21896 0.1719,6.70994 -3.3031,5.37127 z m 3.3445,-14.1194 c 5.6633,4.77431 17.9403,-5.14266 8.2897,-8.74205 -4.9939,-1.59067 -11.4551,3.49232 -8.2897,8.74205 z m 21.9807,14.1194 c 0,-8.42454 0,-16.849 0,-25.27354 5.3866,-0.24318 12.032,-1.26691 16.1418,3.04118 0.057,6.45017 3.9749,14.29832 0.4051,20.33663 -4.7899,3.36962 -11.0851,2.09177 -16.5469,1.89573 z m 3.3445,-14.65378 c 6.5695,6.94835 14.3237,-10.51454 3.6566,-8.17174 -3.6054,0.48485 -5.1768,5.19332 -3.6566,8.17174 z m 0,11.6713 c 6.542,5.80466 16.8856,-8.03361 6.4046,-9.33838 -4.695,-0.44628 -8.9959,5.03294 -6.4046,9.33838 z m 20.4465,2.98248 c 0,-8.42454 0,-16.849 0,-25.27354 6.0914,0 12.1827,0 18.2741,0 -2.2772,7.09673 -18.5726,-1.55263 -14.5079,9.37748 2.4567,4.17004 13.5921,-1.86245 11.929,3.59797 -4.0575,3.92298 -11.9751,-3.7068 -12.4103,4.72304 0.4965,8.88671 9.9083,2.68819 14.9824,5.07725 -2.1152,5.06763 -9.7779,1.66067 -14.2381,2.34218 -1.3437,0.146 -2.6789,0.18228 -4.0292,0.15562 z m 29.9455,0 c 0,-7.43038 0,-14.86068 0,-22.29106 -2.7756,0 -5.5512,0 -8.3268,0 4.1975,-6.31538 13.3312,-1.87728 19.3554,-2.36549 -2.7046,3.19185 -11.1322,3.64078 -7.7789,10.36379 0.2434,4.73089 0.018,9.527 0.095,14.29276 -1.1148,0 -2.2297,0 -3.3445,0 z m 15.2227,0 c 0,-8.42454 0,-16.849 0,-25.27354 6.0914,0 12.1828,0 18.2742,0 -2.2772,7.09673 -18.5726,-1.55263 -14.5079,9.37748 2.4567,4.17004 13.5921,-1.86245 11.929,3.59797 -4.0576,3.92298 -11.9751,-3.7068 -12.4103,4.72304 0.4964,8.88671 9.9083,2.68819 14.9823,5.07725 -2.1151,5.06763 -9.7779,1.66067 -14.238,2.34218 -1.3437,0.146 -2.6789,0.18228 -4.0293,0.15562 z m 33.8762,0 c 0,-8.42454 0,-16.849 0,-25.27354 6.7178,2.57106 1.9299,10.74537 3.3446,15.913 0,3.12018 0,6.24036 0,9.36054 -1.1149,0 -2.2297,0 -3.3446,0 z m -139.9699,34.22107 c 3.2156,-9.51112 17.0174,1.84444 9.1668,7.49455 -7.3317,6.49518 -21.5739,1.63348 -21.9654,-8.63453 -0.9884,-7.95681 5.901,-15.94867 14.1178,-15.08559 3.8305,-1.91002 9.9953,7.38934 4.758,5.94396 -4.4605,-5.63343 -13.8101,-2.10157 -15.3147,4.3937 -3.13,8.22409 7.9597,17.58021 15.0688,11.73467 4.1123,-3.46398 -2.3926,-8.68528 -5.8313,-5.84676 z m 15.671,9.91282 c 0,-8.42454 0,-16.849 0,-25.27354 6.4411,0.42695 14.5585,-2.01233 19.3073,3.70954 4.8093,4.9302 -8.1563,9.96941 -1.7364,14.25278 5.467,0.61955 0.9081,10.84423 -1.2923,4.11628 -0.4784,-6.55891 -13.8315,-11.71481 -12.9755,-2.17633 0.4958,2.21896 0.1719,6.70994 -3.3031,5.37127 z m 3.3445,-14.1194 c 5.6633,4.77431 17.9403,-5.14266 8.2897,-8.74204 -4.9939,-1.59068 -11.4551,3.49231 -8.2897,8.74204 z m 38.7033,-11.15414 c 6.7983,4.65675 2.734,13.96511 2.3183,20.54256 -3.0938,6.78135 -15.1332,7.53878 -17.6057,-0.12701 -1.5324,-6.15606 -3.5045,-13.41741 0.3311,-19.13973 5.5812,5.48523 -2.2081,14.82078 4.2325,20.00475 5.4753,4.06579 11.3268,-2.52278 11.5324,-7.98744 0.3285,-4.47924 -1.6181,-8.701 -0.8086,-13.29313 z m 8.9303,25.27354 c 0,-8.42454 0,-16.849 0,-25.27354 6.4439,0.083 16.4438,-1.96078 19.0988,5.912 1.2328,9.31578 -10.2814,9.07878 -15.7374,10.7188 -1.137,2.84337 2.5544,9.85872 -3.3614,8.64274 z m 3.3445,-13.25738 c 6.7996,5.85074 17.4859,-8.34907 6.4524,-9.63037 -4.9329,-0.4755 -9.1594,5.17002 -6.4524,9.63037 z m 20.2395,13.25738 c 0,-8.42454 0,-16.849 0,-25.27354 6.4439,0.083 16.4438,-1.96078 19.0988,5.912 1.2329,9.31578 -10.2813,9.07878 -15.7373,10.7188 -1.1371,2.84337 2.5544,9.85872 -3.3615,8.64274 z m 3.3445,-13.25738 c 6.7996,5.85074 17.4859,-8.34907 6.4524,-9.63037 -4.9328,-0.4755 -9.1594,5.17002 -6.4524,9.63037 z"
         id="path13268"
         inkscape:connector-curvature="0" />
    </g>
    <g
       id="g13549"
       transform="matrix(0.23834883,0,0,0.23834883,-785.49475,710.33205)">
      <path
         inkscape:connector-curvature="0"
         id="path13270"
         d="m 3787.0343,588.52079 301.0495,-18.69812 -4.0703,478.06073 -350.4776,-29.5925 z"
         style="fill:#000000;fill-opacity:1;stroke:none"
         sodipodi:nodetypes="ccccc" />
      <path
         sodipodi:nodetypes="ccccc"
         style="fill:#d2a5ff;fill-opacity:1;stroke:none"
         d="m 3749.5854,579.60442 337.0396,-14.26619 -11.5278,478.45617 -352.261,-36.2032 z"
         id="path13272"
         inkscape:connector-curvature="0" />
      <path
         style="font-size:medium;font-style:normal;font-variant:normal;font-weight:normal;font-stretch:normal;text-indent:0;text-align:start;text-decoration:none;line-height:normal;letter-spacing:normal;word-spacing:normal;text-transform:none;direction:ltr;block-progression:tb;writing-mode:lr-tb;text-anchor:start;baseline-shift:baseline;color:#000000;fill:url(#linearGradient13573);fill-opacity:1;fill-rule:nonzero;stroke:none;stroke-width:15;marker:none;visibility:visible;display:inline;overflow:visible;enable-background:accumulate;font-family:Sans;-inkscape-font-specification:Sans"
         d="m 3868.9431,528.8041 -4.4423,4.89715 62.3942,68.65578 c 2.5294,0.24689 4.4892,-1.03688 2.6867,-4.45134 z"
         id="path13274"
         inkscape:connector-curvature="0"
         sodipodi:nodetypes="ccccc" />
      <path
         transform="matrix(0.88267784,0,0,0.88267784,3569.5825,466.71215)"
         sodipodi:type="arc"
         style="fill:url(#radialGradient13575);fill-opacity:1;fill-rule:nonzero;stroke:none"
         id="path13276"
         sodipodi:cx="329.28571"
         sodipodi:cy="63.790752"
         sodipodi:rx="17.142857"
         sodipodi:ry="17.142857"
         d="m 346.42856,63.790752 c 0,9.467739 -7.67512,17.142857 -17.14285,17.142857 -9.46774,0 -17.14286,-7.675118 -17.14286,-17.142857 0,-9.467738 7.67512,-17.142856 17.14286,-17.142856 9.46773,0 17.14285,7.675118 17.14285,17.142856 z" />
      <path
         sodipodi:nodetypes="ccccc"
         style="fill:#b469ff;fill-opacity:1;stroke:none"
         d="m 3778.2684,600.61401 278.4826,0.87914 5.9427,92.01519 -286.169,-5.54119 z"
         id="path13278"
         inkscape:connector-curvature="0" />
      <path
         style="font-size:40px;font-style:normal;font-weight:normal;line-height:125%;letter-spacing:0px;word-spacing:0px;fill:#000000;fill-opacity:1;stroke:none;font-family:Sans"
         d="m 3802.899,660.33077 c 5.1768,-6.55512 2.618,-17.37692 10.2113,-22.1696 8.3389,-0.14476 10.5676,13.93404 10.8313,21.04745 -3.8255,-10.22255 -17.06,-7.48952 -19.4935,1.16982 l -1.5491,-0.0477 z m 7.2924,-10.37835 c 2.8561,0 5.7121,0 8.5682,0 0.4486,-5.14733 -7.0549,-13.64081 -7.1713,-3.72693 -0.477,1.23796 -0.9558,2.47556 -1.3969,3.72693 z m 26.2907,10.37835 c -0.5759,-7.09019 -11.5194,-18.66245 -5.5324,-22.87751 4.6803,3.50883 1.7014,19.18059 9.6369,14.97613 2.2035,-5.21247 0.8886,-14.10536 8.1617,-15.36106 -4.1565,7.46736 -3.5335,19.27521 -12.2662,23.26244 z m 15.2227,-8.11993 c 2.4914,6.20567 20.9445,6.72204 13.1357,-1.23372 -8.2665,-1.23142 -16.8128,-13.31722 -5.5581,-17.00372 4.3019,-2.99189 12.4083,6.49483 8.7453,5.18131 -6.7942,-6.50305 -15.2781,6.81595 -3.213,5.42741 10.7249,4.40951 3.8516,21.86226 -6.9802,15.54511 -3.3232,-1.13777 -6.4737,-4.14603 -6.1297,-7.91639 z m 24.584,8.11993 c 0,-8.42454 0,-16.84899 0,-25.27353 9.327,4.29113 -1.9315,16.86364 5.6476,21.80779 2.9806,-0.3875 13.381,1.38051 5.5902,3.72313 -3.7545,0.37293 -7.4929,-0.92204 -11.2378,-0.25739 z m 36.376,-25.27353 c 7.5956,7.24281 4.6848,25.24661 -6.8481,25.93854 -9.3735,-1.37795 -12.3929,-13.2151 -9.8386,-21.08055 5.4285,-7.89384 0.9195,8.21323 3.8524,11.38416 2.7607,11.22537 16.0424,3.66444 13.2068,-5.30851 -0.1127,-3.64326 -0.8058,-7.28686 -0.3725,-10.93364 z m 15.3606,25.27353 c 0,-7.43038 0,-14.86067 0,-22.29105 -2.7756,0 -5.5512,0 -8.3268,0 2.8413,-5.65718 18.0959,-4.16527 16.4365,-0.60738 -9.4784,3.15893 -3.2222,13.99972 -4.6183,20.71178 -0.4889,1.42817 -1.9726,2.40891 -3.4914,2.18665 z m 15.1193,0 c 0,-8.42454 0,-16.84899 0,-25.27353 9.2997,-0.60596 9.2817,17.73776 16.8092,15.13112 0.7254,-3.80398 -2.2934,-14.35975 1.9861,-13.32481 2.8403,6.77111 1.1655,16.56124 -0.3043,22.49398 -8.0842,-1.21668 -8.2331,-12.80192 -14.3161,-16.71394 -4.5596,3.70274 3.8828,17.6397 -4.1749,17.68718 z m 26.1183,0 c 0,-8.42454 0,-16.84899 0,-25.27353 7.5935,5.70139 1.4218,16.59266 3.129,24.40251 -0.6162,1.08587 -2.0616,1.13918 -3.129,0.87102 z m 9.1888,0 c 0,-8.42454 0,-16.84899 0,-25.27353 9.2997,-0.60596 9.2817,17.73776 16.8092,15.13112 0.7254,-3.80398 -2.2934,-14.35975 1.9861,-13.32481 2.8403,6.77111 1.1655,16.56124 -0.3043,22.49398 -8.0842,-1.21668 -8.2331,-12.80192 -14.3161,-16.71394 -4.5026,4.22688 3.7687,16.9452 -4.1749,17.68718 l 0,0 z m 37.3759,-9.91291 c 6.1842,-11.73564 18.1946,9.35206 5.0089,9.81688 -9.9061,4.08265 -21.9909,-7.34891 -17.276,-17.414 1.9103,-8.58678 20.1052,-12.5415 19.9559,-2.28543 -7.4467,-6.1768 -18.3602,-1.62271 -17.2689,8.70638 -1.5995,10.10234 17.3735,12.31256 15.3389,2.0336 -1.5263,-1.41308 -3.8826,-1.13018 -5.7588,-0.85743 z"
         id="path13280"
         inkscape:connector-curvature="0" />
    </g>
    <path
       sodipodi:nodetypes="ccccc"
       style="fill:#000000;fill-opacity:1;stroke:none"
       d="m 225.16201,661.74823 246.76144,-6.97906 1.18358,95.51515 -263.25583,-4.07204 z"
       id="path13669"
       inkscape:connector-curvature="0" />
    <path
       inkscape:connector-curvature="0"
       id="path13589"
       d="m 223.23587,660.30362 248.80441,-6.97906 -0.85936,95.51516 -263.25586,-4.07205 z"
       style="fill:#ffffff;fill-opacity:1;stroke:none"
       sodipodi:nodetypes="ccccc" />
    <g
       id="g13655"
       transform="matrix(0.23834883,0,0,0.23834883,-665.63936,702.16009)">
      <path
         style="font-size:medium;font-style:normal;font-variant:normal;font-weight:normal;font-stretch:normal;text-indent:0;text-align:start;text-decoration:none;line-height:normal;letter-spacing:normal;word-spacing:normal;text-transform:none;direction:ltr;block-progression:tb;writing-mode:lr-tb;text-anchor:start;baseline-shift:baseline;color:#000000;fill:url(#linearGradient13645);fill-opacity:1;fill-rule:nonzero;stroke:none;stroke-width:15;marker:none;visibility:visible;display:inline;overflow:visible;enable-background:accumulate;font-family:Sans;-inkscape-font-specification:Sans"
         d="m 3819.4986,-230.86867 -4.4424,4.89715 62.3943,68.65579 c 2.5293,0.24688 4.4891,-1.03687 2.6867,-4.45134 z"
         id="path13593"
         inkscape:connector-curvature="0"
         sodipodi:nodetypes="ccccc" />
      <path
         transform="matrix(0.88267784,0,0,0.88267784,3523.9208,-285.07957)"
         sodipodi:type="arc"
         style="fill:url(#radialGradient13653);fill-opacity:1;fill-rule:nonzero;stroke:none"
         id="path13595"
         sodipodi:cx="329.28571"
         sodipodi:cy="63.790752"
         sodipodi:rx="17.142857"
         sodipodi:ry="17.142857"
         d="m 346.42856,63.790752 c 0,9.467739 -7.67512,17.142857 -17.14285,17.142857 -9.46774,0 -17.14286,-7.675118 -17.14286,-17.142857 0,-9.467738 7.67512,-17.142856 17.14286,-17.142856 9.46773,0 17.14285,7.675118 17.14285,17.142856 z" />
    </g>
    <g
       id="g13659"
       transform="matrix(0.23834883,0,0,0.23834883,-483.13223,701.47909)">
      <path
         sodipodi:nodetypes="ccccc"
         inkscape:connector-curvature="0"
         id="path13661"
         d="m 3819.4986,-230.86867 -4.4424,4.89715 62.3943,68.65579 c 2.5293,0.24688 4.4891,-1.03687 2.6867,-4.45134 z"
         style="font-size:medium;font-style:normal;font-variant:normal;font-weight:normal;font-stretch:normal;text-indent:0;text-align:start;text-decoration:none;line-height:normal;letter-spacing:normal;word-spacing:normal;text-transform:none;direction:ltr;block-progression:tb;writing-mode:lr-tb;text-anchor:start;baseline-shift:baseline;color:#000000;fill:url(#linearGradient13665);fill-opacity:1;fill-rule:nonzero;stroke:none;stroke-width:15;marker:none;visibility:visible;display:inline;overflow:visible;enable-background:accumulate;font-family:Sans;-inkscape-font-specification:Sans" />
      <path
         d="m 346.42856,63.790752 c 0,9.467739 -7.67512,17.142857 -17.14285,17.142857 -9.46774,0 -17.14286,-7.675118 -17.14286,-17.142857 0,-9.467738 7.67512,-17.142856 17.14286,-17.142856 9.46773,0 17.14285,7.675118 17.14285,17.142856 z"
         sodipodi:ry="17.142857"
         sodipodi:rx="17.142857"
         sodipodi:cy="63.790752"
         sodipodi:cx="329.28571"
         id="path13663"
         style="fill:url(#radialGradient13667);fill-opacity:1;fill-rule:nonzero;stroke:none"
         sodipodi:type="arc"
         transform="matrix(0.88267784,0,0,0.88267784,3523.9208,-285.07957)" />
    </g>
  </g>
</svg>
