<?xml version="1.0" encoding="UTF-8" standalone="no"?>
<!-- Created with Inkscape (http://www.inkscape.org/) -->

<svg
   xmlns:dc="http://purl.org/dc/elements/1.1/"
   xmlns:cc="http://creativecommons.org/ns#"
   xmlns:rdf="http://www.w3.org/1999/02/22-rdf-syntax-ns#"
   xmlns:svg="http://www.w3.org/2000/svg"
   xmlns="http://www.w3.org/2000/svg"
   xmlns:sodipodi="http://sodipodi.sourceforge.net/DTD/sodipodi-0.dtd"
   xmlns:inkscape="http://www.inkscape.org/namespaces/inkscape"
   width="744.09448819"
   height="1052.3622047"
   id="svg2"
   version="1.1"
   inkscape:version="0.48.2 r9819"
   sodipodi:docname="PWM_gripklo.svg">
  <sodipodi:namedview
     id="base"
     pagecolor="#ffffff"
     bordercolor="#666666"
     borderopacity="1.0"
     inkscape:pageopacity="0.0"
     inkscape:pageshadow="2"
     inkscape:zoom="0.7559768"
     inkscape:cx="360.02734"
     inkscape:cy="760.96379"
     inkscape:document-units="px"
     inkscape:current-layer="layer1"
     showgrid="false"
     inkscape:window-width="1366"
     inkscape:window-height="721"
     inkscape:window-x="-4"
     inkscape:window-y="24"
     inkscape:window-maximized="1" />
  <defs
     id="defs4" />
  <metadata
     id="metadata7">
    <rdf:RDF>
      <cc:Work
         rdf:about="">
        <dc:format>image/svg+xml</dc:format>
        <dc:type
           rdf:resource="http://purl.org/dc/dcmitype/StillImage" />
        <dc:title />
      </cc:Work>
    </rdf:RDF>
  </metadata>
  <g
     id="layer1"
     inkscape:groupmode="layer"
     inkscape:label="Layer 1">
    <path
       inkscape:export-ydpi="129.71162"
       inkscape:export-xdpi="129.71162"
       inkscape:export-filename="H:\PWM_gripklo.png"
       inkscape:connector-curvature="0"
       id="path4506"
       d="m 35.631359,26.145464 655.506701,0"
       style="fill:none;stroke:#000000;stroke-width:2;stroke-linecap:butt;stroke-linejoin:miter;stroke-miterlimit:4;stroke-opacity:1;stroke-dasharray:none" />
    <path
       inkscape:export-ydpi="129.71162"
       inkscape:export-xdpi="129.71162"
       inkscape:export-filename="H:\PWM_gripklo.png"
       style="fill:none;stroke:#000000;stroke-width:2;stroke-linecap:butt;stroke-linejoin:miter;stroke-miterlimit:4;stroke-opacity:1;stroke-dasharray:none"
       d="m 35.631359,231.06635 655.506701,0"
       id="path4508"
       inkscape:connector-curvature="0" />
    <path
       inkscape:connector-curvature="0"
       id="path4510"
       d="m 35.056861,197.15177 c 0,0 1.939992,4.72749 1.939992,4.72749 0,0 652.668847,0.89452 652.668847,0.89452 0,0 0.10435,-3.64514 0.10435,-3.64514 0,0 -655.313554,0.31649 -655.313554,0.31649 0,0 0.622586,-2.30264 0.622586,-2.30264"
       style="font-size:medium;font-style:normal;font-variant:normal;font-weight:normal;font-stretch:normal;text-indent:0;text-align:start;text-decoration:none;line-height:normal;letter-spacing:normal;word-spacing:normal;text-transform:none;direction:ltr;block-progression:tb;writing-mode:lr-tb;text-anchor:start;baseline-shift:baseline;color:#000000;fill:#680000;fill-opacity:1;stroke:none;stroke-width:4;marker:none;visibility:visible;display:inline;overflow:visible;enable-background:accumulate;font-family:Sans;-inkscape-font-specification:Sans" />
    <path
       inkscape:connector-curvature="0"
       id="path4512"
       d="m 359.45996,25.951979 c 0,0 -325.504528,202.518031 -325.504528,202.518031 0,0 3.260759,5.4478 3.260759,5.4478 0,0 322.737959,-206.815776 322.737959,-206.815776 0,0 -1.80682,-1.429999 -1.80682,-1.429999 0,0 -0.54372,-0.926996 -0.54372,-0.926996"
       style="font-size:medium;font-style:normal;font-variant:normal;font-weight:normal;font-stretch:normal;text-indent:0;text-align:start;text-decoration:none;line-height:normal;letter-spacing:normal;word-spacing:normal;text-transform:none;direction:ltr;block-progression:tb;writing-mode:lr-tb;text-anchor:start;baseline-shift:baseline;color:#000000;fill:#000000;fill-opacity:1;stroke:none;stroke-width:4;marker:none;visibility:visible;display:inline;overflow:visible;enable-background:accumulate;font-family:Sans;-inkscape-font-specification:Sans" />
    <path
       inkscape:connector-curvature="0"
       id="path4514"
       d="m 681.883,23.339555 c 0,0 -322.48225,207.189005 -322.48225,207.189005 0,0 0.51524,1.20332 0.51524,1.20332 0,0 323.59697,-203.593495 323.59697,-203.593495 0,0 0.73261,-3.132488 0.73261,-3.132488 0,0 -1.94448,0.896452 -1.94448,0.896452"
       style="font-size:medium;font-style:normal;font-variant:normal;font-weight:normal;font-stretch:normal;text-indent:0;text-align:start;text-decoration:none;line-height:normal;letter-spacing:normal;word-spacing:normal;text-transform:none;direction:ltr;block-progression:tb;writing-mode:lr-tb;text-anchor:start;baseline-shift:baseline;color:#000000;fill:#000000;fill-opacity:1;stroke:none;stroke-width:4;marker:none;visibility:visible;display:inline;overflow:visible;enable-background:accumulate;font-family:Sans;-inkscape-font-specification:Sans" />
    <path
       inkscape:connector-curvature="0"
       id="path4516"
       d="m 357.94088,370.65664 c 0,0 2.28069,0.14139 2.28069,0.14139 0,0 0.0572,76.2144 0.0572,76.2144 0,0 -313.167166,-0.68162 -313.167166,-0.68162 0,0 0.508282,-75.23521 0.508282,-75.23521 0,0 -0.345642,-0.1406 -0.345642,-0.1406 0,0 -2.940535,-2.64217 -2.940535,-2.64217 0,0 -7.404703,0.16744 -7.404703,0.16744 0,0 -3.33468,2.6863 -3.33468,2.6863 0,0 1.525002,-0.56907 1.525002,-0.56907 0,0 -2.029961,78.03357 -2.029961,78.03357 0,0 1.129044,4.46253 1.129044,4.46253 0,0 4.733689,-0.17982 4.733689,-0.17982 0,0 -2.212293,-3.33881 -2.212293,-3.33881 0,0 2.888796,-76.32897 2.888796,-76.32897 0,0 3.854133,-0.359 3.854133,-0.359 0,0 -2.330731,77.66948 -2.330731,77.66948 0,0 2.391342,0.19479 2.391342,0.19479 0,0 2.258872,0.85703 2.258872,0.85703 0,0 315.633601,-1.41404 315.633601,-1.41404 0,0 1.87485,-0.042 1.87485,-0.042 0,0 -0.16925,-2.03825 -0.16925,-2.03825 0,0 -0.45604,-73.12882 -0.45604,-73.12882 0,0 5.08193,-0.48883 5.08193,-0.48883 0,0 -2.14784,74.0037 -2.14784,74.0037 0,0 1.85495,4.34422 1.85495,4.34422 0,0 2.4391,-2.05257 2.4391,-2.05257 0,0 316.67095,2.23717 316.67095,2.23717 0,0 1.65798,-0.15294 1.65798,-0.15294 0,0 -0.71996,-5.21503 -0.71996,-5.21503 0,0 -0.36538,1.4267 -0.36538,1.4267 0,0 -315.07807,-1.93694 -315.07807,-1.93694 0,0 -2.93001,-75.55512 -2.93001,-75.55512 0,0 0.57415,-0.91295 0.57415,-0.91295 0,0 -1.88035,0.0843 -1.88035,0.0843 0,0 -5.79595,-2.22886 -5.79595,-2.22886 0,0 -2.76666,-0.48796 -2.76666,-0.48796 0,0 -0.60039,-0.0344 -0.60039,-0.0344"
       style="font-size:medium;font-style:normal;font-variant:normal;font-weight:normal;font-stretch:normal;text-indent:0;text-align:start;text-decoration:none;line-height:normal;letter-spacing:normal;word-spacing:normal;text-transform:none;direction:ltr;block-progression:tb;writing-mode:lr-tb;text-anchor:start;baseline-shift:baseline;color:#000000;fill:#ff0000;fill-opacity:1;stroke:none;stroke-width:4;marker:none;visibility:visible;display:inline;overflow:visible;enable-background:accumulate;font-family:Sans;-inkscape-font-specification:Sans" />
    <path
       inkscape:connector-curvature="0"
       id="path4518"
       d="m 35.862965,260.47752 c 0,0 -2.99035,2.08301 -2.99035,2.08301 0,0 1.589606,75.31765 1.589606,75.31765 0,0 -1.593841,3.39124 -1.593841,3.39124 0,0 5.33777,-1.38602 5.33777,-1.38602 0,0 1.252956,0.51736 1.252956,0.51736 0,0 -2.416746,-76.70269 -2.416746,-76.70269 0,0 46.515421,-0.48286 46.515421,-0.48286 0,0 -1.805588,74.95514 -1.805588,74.95514 0,0 0.215155,1.86693 0.215155,1.86693 0,0 1.590493,0.30525 1.590493,0.30525 0,0 278.476379,1.60056 278.476379,1.60056 0,0 0.0675,0.82968 0.0675,0.82968 0,0 1.70149,-2.44337 1.70149,-2.44337 0,0 0.25248,-75.06677 0.25248,-75.06677 0,0 40.07631,-1.67222 40.07631,-1.67222 0,0 0.90197,74.28541 0.90197,74.28541 0,0 0.56701,2.09127 0.56701,2.09127 0,0 0.11492,2.02409 0.11492,2.02409 0,0 283.17513,-1.99581 283.17513,-1.99581 0,0 0.19415,0.50292 0.19415,0.50292 0,0 2.67195,-3.48863 2.67195,-3.48863 0,0 -3.1899,-1.11108 -3.1899,-1.11108 0,0 -278.7063,0.19361 -278.7063,0.19361 0,0 -1.33866,-71.95114 -1.33866,-71.95114 0,0 1.69135,-4.37737 1.69135,-4.37737 0,0 -2.64889,-0.43439 -2.64889,-0.43439 0,0 -47.2498,-0.0423 -47.2498,-0.0423 0,0 -3.11639,1.85653 -3.11639,1.85653 0,0 2.91906,1.89701 2.91906,1.89701 0,0 -2.19098,75.65071 -2.19098,75.65071 0,0 -270.511325,-2.60395 -270.511325,-2.60395 0,0 -1.21093,-75.11455 -1.21093,-75.11455 0,0 -0.683424,-1.55858 -0.683424,-1.55858 0,0 0.330398,1.88493 0.330398,1.88493 0,0 -48.012775,-1.17163 -48.012775,-1.17163 0,0 -2.588526,1.48965 -2.588526,1.48965 0,0 -1.694867,0.0519 -1.694867,0.0519"
       style="font-size:medium;font-style:normal;font-variant:normal;font-weight:normal;font-stretch:normal;text-indent:0;text-align:start;text-decoration:none;line-height:normal;letter-spacing:normal;word-spacing:normal;text-transform:none;direction:ltr;block-progression:tb;writing-mode:lr-tb;text-anchor:start;baseline-shift:baseline;color:#000000;fill:#680000;fill-opacity:1;stroke:none;stroke-width:4;marker:none;visibility:visible;display:inline;overflow:visible;enable-background:accumulate;font-family:Sans;-inkscape-font-specification:Sans" />
    <path
       inkscape:export-ydpi="129.71162"
       inkscape:export-xdpi="129.71162"
       inkscape:export-filename="H:\PWM_gripklo.png"
       inkscape:connector-curvature="0"
       id="path4520"
       d="m 368.72826,224.95582 0,198.23977"
       style="fill:none;stroke:#000000;stroke-width:0.65529507;stroke-linecap:butt;stroke-linejoin:miter;stroke-miterlimit:4;stroke-opacity:1;stroke-dasharray:0.65529507, 1.31059015;stroke-dashoffset:0" />
    <path
       inkscape:export-ydpi="129.71162"
       inkscape:export-xdpi="129.71162"
       inkscape:export-filename="H:\PWM_gripklo.png"
       style="fill:none;stroke:#000000;stroke-width:0.66346413;stroke-linecap:butt;stroke-linejoin:miter;stroke-miterlimit:4;stroke-opacity:1;stroke-dasharray:0.66346415, 1.3269283;stroke-dashoffset:0"
       d="m 360.77776,230.88282 0,192.7773"
       id="path4522"
       inkscape:connector-curvature="0" />
    <path
       inkscape:export-ydpi="129.71162"
       inkscape:export-xdpi="129.71162"
       inkscape:export-filename="H:\PWM_gripklo.png"
       inkscape:connector-curvature="0"
       id="path4524"
       d="m 44.313559,225.94084 0,196.57956"
       style="fill:none;stroke:#000000;stroke-width:0.65629697;stroke-linecap:butt;stroke-linejoin:miter;stroke-miterlimit:4;stroke-opacity:1;stroke-dasharray:0.65629697, 1.31259393;stroke-dashoffset:0" />
    <path
       inkscape:export-ydpi="129.71162"
       inkscape:export-xdpi="129.71162"
       inkscape:export-filename="H:\PWM_gripklo.png"
       inkscape:connector-curvature="0"
       id="path4526"
       d="m 84.327959,200.71752 0,139.9826"
       style="fill:none;stroke:#000000;stroke-width:0.5;stroke-linecap:butt;stroke-linejoin:miter;stroke-miterlimit:4;stroke-opacity:1;stroke-dasharray:0.5, 1;stroke-dashoffset:0" />
    <path
       inkscape:export-ydpi="129.71162"
       inkscape:export-xdpi="129.71162"
       inkscape:export-filename="H:\PWM_gripklo.png"
       style="fill:none;stroke:#000000;stroke-width:0.66403961;stroke-linecap:butt;stroke-linejoin:miter;stroke-miterlimit:4;stroke-opacity:1;stroke-dasharray:0.6640396, 1.3280792;stroke-dashoffset:0"
       d="m 36.211459,231.37382 0,191.66254"
       id="path4528"
       inkscape:connector-curvature="0" />
    <path
       inkscape:export-ydpi="129.71162"
       inkscape:export-xdpi="129.71162"
       inkscape:export-filename="H:\PWM_gripklo.png"
       inkscape:connector-curvature="0"
       id="path4530"
       d="m 407.08926,201.04901 0,138.65901"
       style="fill:none;stroke:#000000;stroke-width:0.5;stroke-linecap:butt;stroke-linejoin:miter;stroke-miterlimit:4;stroke-opacity:1;stroke-dasharray:0.5, 1;stroke-dashoffset:0" />
    <path
       inkscape:export-ydpi="129.71162"
       inkscape:export-xdpi="129.71162"
       inkscape:export-filename="H:\PWM_gripklo.png"
       sodipodi:nodetypes="ccc"
       inkscape:connector-curvature="0"
       id="path4532"
       d="m 35.715359,455.12162 c -0.3307,24.47165 152.345201,-2.60546 160.088201,18.98677 7.5064,-21.6656 163.9959,-0.46768 163.9959,-17.66398"
       style="fill:none;stroke:#000000;stroke-width:4;stroke-linecap:butt;stroke-linejoin:miter;stroke-miterlimit:4;stroke-opacity:1;stroke-dasharray:none" />
    <path
       inkscape:export-ydpi="129.71162"
       inkscape:export-xdpi="129.71162"
       inkscape:export-filename="H:\PWM_gripklo.png"
       sodipodi:nodetypes="ccc"
       inkscape:connector-curvature="0"
       id="path4534"
       d="m 360.76286,370.384 c 0.015,-3.63912 3.5519,-0.91825 4.1507,-4.15065 0.5651,3.21173 4.4137,-0.11692 4.326,4.2091"
       style="fill:none;stroke:#000000;stroke-width:3;stroke-linecap:butt;stroke-linejoin:miter;stroke-miterlimit:4;stroke-opacity:1;stroke-dasharray:none" />
    <path
       style="font-size:14.24236965px;font-style:normal;font-weight:normal;line-height:125%;letter-spacing:0px;word-spacing:0px;fill:#000000;fill-opacity:1;stroke:none;font-family:Sans"
       d="m 349.81216,349.36361 c 2.1525,-0.0568 3.4509,2.33349 3.2613,4.26078 0.2064,2.0983 0.028,4.75532 -2.0088,5.93278 -2.0767,0.95369 -4.6957,-1.04486 -4.4346,-3.28554 -0.323,-2.25194 -0.3016,-5.04586 1.6933,-6.55465 0.4525,-0.24839 0.9725,-0.37519 1.4888,-0.35337 z m 0,1.62035 c -1.9106,0.95903 -0.9537,3.37549 -1.4429,5.01656 -0.4681,2.38409 3.6363,2.07891 2.6494,-0.26678 0.033,-1.53331 0.4886,-3.50273 -0.9007,-4.59422 l -0.3058,-0.15561 0,5e-5 z m 4.9931,6.6622 c 0.6514,0 1.3028,0 1.9542,0 0.3017,1.44551 0.03,4.04132 -1.9699,3.84454 0.8626,-0.87758 0.5589,-2.08343 -0.017,-2.84472 0.024,-0.33201 0.1005,-0.66723 0.033,-0.99982 z m 3.6093,-0.66761 c 1.6333,-0.98571 3.6227,2.63267 4.7806,0.10005 0.9087,-2.08807 -1.8168,-3.40544 -3.298,-2.10604 -1.8891,-0.30463 -0.6815,-2.57635 -0.6821,-3.77177 0.1855,-1.53585 1.6755,-1.85526 2.9435,-1.65637 0.887,0 1.7739,0 2.6609,0 0,0.60966 0,1.21932 0,1.82898 -1.2286,0 -2.4572,0 -3.6858,0 -0.102,0.5772 -0.204,1.15441 -0.306,1.73161 2.2545,-1.29919 5.19,1.36589 4.4256,3.75406 -0.3425,2.66854 -4.2345,4.04346 -6.0233,1.90437 -0.4585,-0.48192 -0.7749,-1.11522 -0.8154,-1.78489 z m 12.1213,-4.76369 c 0.6004,0 1.2008,0 1.8012,0 0.926,1.28398 2.7806,-1.58714 3.4781,0.34016 1.6359,0.72105 3.728,-1.62885 5.0032,0.33063 1.1737,1.60625 0.158,3.69781 0.8177,5.46391 -0.067,1.88921 -3.2971,1.24002 -2.2143,-0.56767 0.1203,-1.31607 0.525,-3.40312 -1.0297,-3.97481 -1.9292,0.0623 -1.5413,2.72606 -1.4278,4.0987 0.3181,1.10783 -0.1402,2.15775 -1.4081,1.66796 -1.4032,-0.47311 -0.1446,-2.6319 -0.4889,-3.80793 0.4307,-1.71243 -1.936,-2.92618 -2.5075,-0.93341 -0.44,1.47115 0.058,2.98723 -0.07,4.49059 0.048,0.58779 -0.9431,0.13587 -1.3411,0.27731 -1.2944,0.16684 -0.3035,-1.95157 -0.6131,-2.76956 -10e-5,-1.5386 -10e-5,-3.07741 3e-4,-4.61588 z m 12.1144,5.2783 c 1.3931,-1.19489 3.9469,2.4524 4.4871,-0.0246 -0.9971,-1.46429 -3.8639,-0.51879 -4.1548,-2.81489 -0.3054,-2.13354 2.3968,-3.06971 4.1121,-2.54721 1.6437,-0.3227 2.7335,2.66104 0.585,2.0488 -0.6159,-0.93967 -3.0503,-1.07069 -2.2323,0.4208 1.5163,0.44869 3.8713,0.5639 4.0476,2.61703 0.1301,1.9036 -2.1053,2.79805 -3.7061,2.61228 -1.3604,-0.1012 -2.7961,-0.90733 -3.1386,-2.3122 z"
       id="path4536"
       inkscape:connector-curvature="0" />
    <path
       inkscape:export-ydpi="129.71162"
       inkscape:export-xdpi="129.71162"
       inkscape:export-filename="H:\PWM_gripklo.png"
       style="fill:none;stroke:#000000;stroke-width:4;stroke-linecap:butt;stroke-linejoin:miter;stroke-miterlimit:4;stroke-opacity:1;stroke-dasharray:none"
       d="m 360.76286,261.50169 c 0.015,-10.25308 22.7324,-5.54802 23.3311,-8.78042 0.5652,3.21173 23.5115,-2.76251 23.0932,8.83887"
       id="path4538"
       inkscape:connector-curvature="0"
       sodipodi:nodetypes="ccc" />
    <path
       style="font-size:26.36668396px;font-style:normal;font-weight:normal;line-height:125%;letter-spacing:0px;word-spacing:0px;fill:#000000;fill-opacity:1;stroke:none;font-family:Sans"
       d="m 171.05366,500.4485 c 0,1.12007 0,2.24014 0,3.36021 -4.227,0 -8.4541,0 -12.6812,0 0.7821,-5.32528 5.9742,-8.0468 8.9524,-12.03172 1.1804,-3.60559 -4.7068,-4.55939 -6.1436,-1.68686 -3.5321,0.76913 -1.8547,-5.29871 1.1181,-5.00886 3.2701,-1.04921 7.6232,0.26996 8.6036,3.86713 0.7095,4.09655 -2.5624,7.49019 -5.6455,9.66392 -0.3399,3.39935 4.0237,1.45291 5.7962,1.83618 z m 8.5744,-15.59084 c 3.6989,-0.0466 6.3476,3.87632 5.9898,7.33852 0.5108,4.00553 0.1807,8.95128 -3.4688,11.4485 -3.6333,1.84218 -8.6388,-1.39657 -8.3336,-5.48936 -0.732,-4.1738 -0.6366,-9.1058 2.5443,-12.30327 0.9379,-0.67963 2.1044,-1.07193 3.2683,-0.99439 z m 0,2.99972 c -3.3407,1.82769 -1.885,6.29517 -2.9691,9.30598 0.048,3.25724 5.7188,4.34802 5.1567,0.28656 0.2221,-3.07533 0.6821,-6.68161 -1.3437,-9.26664 l -0.3792,-0.22344 -0.4647,-0.10246 0,0 z m 16.3761,2.27876 c 3.124,0.21309 6.0749,0.16646 9.1811,-0.1702 2.5436,2.3042 5.5633,-0.71201 8.5347,0.25335 2.6119,1.49807 2.5128,4.95126 2.4818,7.60287 -0.307,1.93606 1.3466,5.33725 -1.6618,5.65136 -4.3397,-0.37007 -1.324,-4.80039 -1.9211,-7.3933 0.1268,-3.66618 -5.2109,-3.32815 -4.9849,0.18509 0.077,2.36192 1.8246,6.60154 -1.6394,7.30401 -2.9279,-0.48627 -1.9665,-4.1389 -1.5188,-6.18858 1.0045,-2.70387 -2.7401,-5.74896 -4.577,-2.86416 -2.1007,2.50366 1.3695,5.87195 -0.838,8.38388 -3.7936,2.00709 -3.467,-3.92225 -2.9031,-6.16649 0.066,-2.2026 -0.3614,-4.39747 -0.1535,-6.59783 z m 22.4272,9.77164 c 1.2102,-0.18453 2.4204,-0.36907 3.6306,-0.5536 -1.32,3.80962 6.8718,1.36771 3.0724,-0.63047 -2.7754,-0.24413 -6.359,-2.07039 -6.0649,-5.30962 0.9706,-3.29352 5.2496,-4.51784 8.3079,-3.68141 3.2732,-0.0165 1.9156,5.65275 -0.8389,3.21618 -1.7156,-1.94979 -4.5848,1.74287 -1.5065,2.07832 2.3779,0.40975 5.5245,1.17042 6.1587,3.88094 0.2505,3.43475 -3.4449,5.76301 -6.585,5.37424 -2.5884,-0.18725 -5.6291,-1.58095 -6.1743,-4.37458 z"
       id="path4540"
       inkscape:connector-curvature="0" />
    <path
       style="font-size:16.56952858px;font-style:normal;font-weight:normal;line-height:125%;letter-spacing:0px;word-spacing:0px;fill:#000000;fill-opacity:1;stroke:none;font-family:Sans"
       d="m 368.72886,244.64762 c 0,0.70388 0,1.40776 0,2.11164 -2.6564,0 -5.3128,0 -7.9692,0 0.4216,-3.40553 3.855,-5.02419 5.6363,-7.62578 0.9531,-2.67182 -3.5857,-2.60404 -3.7194,-0.51746 -2.8095,-0.3006 -0.6322,-4.2999 1.5204,-3.77549 2.1937,-0.425 4.9468,1.30825 4.4933,3.76051 -0.3026,2.17711 -2.0782,3.68477 -3.6734,5.00352 -1.0482,2.18207 2.9297,0.56318 3.712,1.04306 z m 1.9741,-0.16181 c 0.7578,0 1.5157,0 2.2735,0 0.3379,1.60144 0.044,4.9061 -2.3009,4.30782 1.206,-0.92489 0.6557,-2.1719 -0.019,-2.97308 0.012,-0.44412 0.1344,-0.89709 0.047,-1.33474 z m 4.1991,-0.7767 c 0.7551,-0.0782 1.5102,-0.15642 2.2653,-0.23463 0.1867,2.8923 4.983,0.66686 3.3986,-1.49401 -0.7052,-2.6431 -4.0471,0.51679 -5.1344,-1.45731 0.4265,-1.75026 -0.1004,-3.98112 1.4033,-5.28867 1.7092,-0.0232 3.8568,-0.67162 5.427,0.13902 0.4366,1.12332 0.032,2.17784 -1.2682,1.81463 -0.9761,0 -1.9521,0 -2.9282,0 -1.1621,2.35355 2.0926,1.38533 3.1232,2.21279 2.2768,1.5391 2.3453,5.35685 -0.027,6.84964 -2.1286,1.57387 -5.8241,0.54787 -6.2268,-2.25616 l -0.033,-0.2853 0,0 z m 14.1019,-5.54205 c 0.6985,0 1.3969,0 2.0954,0 0.9101,1.65405 3.0642,-1.95159 4.0465,0.3957 1.8167,0.94009 3.8422,-1.76585 5.5196,0.0641 1.7974,1.66545 0.4777,4.29298 1.1937,6.33261 0.4524,2.41925 -3.7961,2.13191 -2.5355,-0.2833 0.5606,-1.60871 0.1551,-5.97591 -2.3042,-4.28832 -1.4543,1.80999 0.1391,4.33143 -0.8087,6.23705 -1.4641,0.82674 -2.6778,-0.42568 -2.0493,-1.99246 0.068,-1.51365 0.6545,-4.37983 -1.3487,-4.72555 -2.067,0.43252 -1.7099,3.07746 -1.5354,4.66697 0,0.72847 0,1.45693 0,2.1854 -0.7578,0 -1.5156,0 -2.2734,0 0,-2.86407 0,-5.72814 0,-8.59221 z m 14.0938,6.14075 c 0.7605,-0.11596 1.521,-0.23193 2.2815,-0.34789 -0.6206,2.55095 4.8588,0.84638 2.1716,-0.39034 -1.9964,-0.007 -5.0046,-1.69862 -3.8382,-4.03053 1.2162,-1.85125 4.1972,-2.25962 5.937,-0.95115 1.8849,1.18102 -0.3483,2.62207 -1.5623,1.39376 -1.118,-1.25336 -3.1481,0.66091 -1.1902,1.11005 1.7529,0.35804 4.5174,1.00993 4.176,3.35655 -0.4242,2.2089 -2.9754,2.88948 -4.9078,2.43965 -1.3714,-0.24292 -2.7808,-1.12931 -3.0676,-2.5801 z"
       id="path4542"
       inkscape:connector-curvature="0" />
  </g>
</svg>
